_Griffith_Gothic-Bold_Italic_WebTT.ufo
<glyph name="quotedbl" format="1">
  <advance width="790.528"/>
  <unicode hex="0022"/>
  <outline>
    <contour>
      <point x="295" y="1475" type="line"/>
      <point x="528" y="1475" type="line"/>
      <point x="346" y="969" type="line"/>
      <point x="225" y="969" type="line"/>
    </contour>
    <contour>
      <point x="659" y="1475" type="line"/>
      <point x="893" y="1475" type="line"/>
      <point x="711" y="969" type="line"/>
      <point x="590" y="969" type="line"/>
    </contour>
  </outline>
</glyph>
<glyph name="numbersign" format="1">
  <advance width="1288.192"/>
  <unicode hex="0023"/>
  <outline>
    <contour>
      <point x="1128" y="1106" type="line"/>
      <point x="1356" y="1106" type="line"/>
      <point x="1311" y="928" type="line"/>
      <point x="1067" y="928" type="line"/>
      <point x="936" y="547" type="line"/>
      <point x="1188" y="547" type="line"/>
      <point x="1143" y="369" type="line"/>
      <point x="872" y="369" type="line"/>
      <point x="748" y="0" type="line"/>
      <point x="623" y="0" type="line"/>
      <point x="750" y="369" type="line"/>
      <point x="393" y="369" type="line"/>
      <point x="264" y="0" type="line"/>
      <point x="141" y="0" type="line"/>
      <point x="268" y="369" type="line"/>
      <point x="41" y="369" type="line"/>
      <point x="86" y="547" type="line"/>
      <point x="330" y="547" type="line"/>
      <point x="461" y="928" type="line"/>
      <point x="209" y="928" type="line"/>
      <point x="254" y="1106" type="line"/>
      <point x="524" y="1106" type="line"/>
      <point x="651" y="1475" type="line"/>
      <point x="774" y="1475" type="line"/>
      <point x="647" y="1106" type="line"/>
      <point x="1004" y="1106" type="line"/>
      <point x="1133" y="1475" type="line"/>
      <point x="1255" y="1475" type="line"/>
    </contour>
    <contour>
      <point x="813" y="543" type="line"/>
      <point x="948" y="932" type="line"/>
      <point x="584" y="932" type="line"/>
      <point x="449" y="543" type="line"/>
    </contour>
  </outline>
</glyph>
<glyph name="quotesingle" format="1">
  <advance width="430.08"/>
  <unicode hex="0027"/>
  <outline>
    <contour>
      <point x="295" y="1475" type="line"/>
      <point x="532" y="1475" type="line"/>
      <point x="350" y="969" type="line"/>
      <point x="225" y="969" type="line"/>
    </contour>
  </outline>
</glyph>
<glyph name="parenright" format="1">
  <advance width="702.464"/>
  <unicode hex="0029"/>
  <outline>
    <contour>
      <point x="457" y="1505" type="line"/>
      <point x="537.597014925" y="1378.13432836"/>
      <point x="649.0" y="1055.07462687"/>
      <point x="649" y="870" type="qcurve" smooth="yes"/>
      <point x="649.0" y="550.597014925"/>
      <point x="328.402985075" y="-0.223880597015"/>
      <point x="59" y="-195" type="qcurve"/>
      <point x="-152" y="-195" type="line"/>
      <point x="143.52238806" y="45.2985074627"/>
      <point x="420.0" y="602.701492537"/>
      <point x="420" y="893" type="qcurve" smooth="yes"/>
      <point x="420.0" y="1069.86567164"/>
      <point x="353.626865672" y="1350.52238806"/>
      <point x="279" y="1505" type="qcurve"/>
    </contour>
  </outline>
</glyph>
<glyph name="asterisk" format="1">
  <advance width="901.12"/>
  <unicode hex="002A"/>
  <outline>
    <contour>
      <point x="907" y="1321" type="line"/>
      <point x="969" y="1135" type="line"/>
      <point x="653" y="1092" type="line"/>
      <point x="891" y="872" type="line"/>
      <point x="731" y="756" type="line"/>
      <point x="586" y="1055" type="line"/>
      <point x="442" y="756" type="line"/>
      <point x="283" y="872" type="line"/>
      <point x="520" y="1092" type="line"/>
      <point x="203" y="1135" type="line"/>
      <point x="264" y="1321" type="line"/>
      <point x="549" y="1159" type="line"/>
      <point x="487" y="1475" type="line"/>
      <point x="686" y="1475" type="line"/>
      <point x="625" y="1159" type="line"/>
    </contour>
  </outline>
</glyph>
<glyph name="comma" format="1">
  <advance width="430.08"/>
  <unicode hex="002C"/>
  <outline>
    <contour>
      <point x="55" y="266" type="line"/>
      <point x="303" y="266" type="line"/>
      <point x="0" y="-240" type="line"/>
      <point x="-133" y="-240" type="line"/>
    </contour>
  </outline>
</glyph>
<glyph name="period" format="1">
  <advance width="430.08"/>
  <unicode hex="002E"/>
  <outline>
    <contour>
      <point x="117" y="262" type="qcurve" smooth="yes"/>
      <point x="175.208955224" y="262.0"/>
      <point x="254.0" y="183.208955224"/>
      <point x="254" y="125" type="qcurve" smooth="yes"/>
      <point x="254.0" y="65.2985074627"/>
      <point x="175.208955224" y="-14.0"/>
      <point x="117" y="-14" type="qcurve" smooth="yes"/>
      <point x="57.2985074627" y="-14.0"/>
      <point x="-23.0" y="65.2985074627"/>
      <point x="-23" y="125" type="qcurve" smooth="yes"/>
      <point x="-23.0" y="183.208955224"/>
      <point x="57.2985074627" y="262.0"/>
    </contour>
  </outline>
</glyph>
<glyph name="slash" format="1">
  <advance width="835.584"/>
  <unicode hex="002F"/>
  <outline>
    <contour>
      <point x="829" y="1505" type="line"/>
      <point x="1047" y="1505" type="line"/>
      <point x="4" y="-195" type="line"/>
      <point x="-215" y="-195" type="line"/>
    </contour>
  </outline>
</glyph>
<glyph name="one" format="1">
  <advance width="913.408"/>
  <unicode hex="0031"/>
  <outline>
    <contour>
      <point x="305" y="1475" type="line"/>
      <point x="834" y="1475" type="line"/>
      <point x="504" y="147" type="line"/>
      <point x="774" y="147" type="line"/>
      <point x="737" y="0" type="line"/>
      <point x="-39" y="0" type="line"/>
      <point x="-2" y="147" type="line"/>
      <point x="274" y="147" type="line"/>
      <point x="569" y="1327" type="line"/>
      <point x="268" y="1327" type="line"/>
    </contour>
  </outline>
</glyph>
<glyph name="four" format="1">
  <advance width="1212.416"/>
  <unicode hex="0034"/>
  <outline>
    <contour>
      <point x="891" y="1475" type="line"/>
      <point x="1192" y="1475" type="line"/>
      <point x="954" y="526" type="line"/>
      <point x="1149" y="526" type="line"/>
      <point x="1114" y="391" type="line"/>
      <point x="922" y="391" type="line"/>
      <point x="823" y="0" type="line"/>
      <point x="606" y="0" type="line"/>
      <point x="702" y="391" type="line"/>
      <point x="31" y="391" type="line"/>
      <point x="80" y="584" type="line"/>
    </contour>
    <contour>
      <point x="737" y="526" type="line"/>
      <point x="926" y="1282" type="line"/>
      <point x="903" y="1282" type="line"/>
      <point x="231" y="549" type="line"/>
      <point x="227" y="526" type="line"/>
    </contour>
  </outline>
</glyph>
<glyph name="six" format="1">
  <advance width="1175.552"/>
  <unicode hex="0036"/>
  <outline>
    <contour>
      <point x="809" y="1475" type="qcurve"/>
      <point x="1133" y="1475" type="line"/>
      <point x="843.447761194" y="1314.55223881"/>
      <point x="441.119402985" y="938.955223881"/>
      <point x="365" y="780" type="qcurve"/>
      <point x="377" y="780" type="line"/>
      <point x="460.582089552" y="856.865671642"/>
      <point x="639.044776119" y="936.0"/>
      <point x="748" y="936" type="qcurve" smooth="yes"/>
      <point x="911.432835821" y="936.0"/>
      <point x="1118.0" y="745.059701493"/>
      <point x="1118" y="557" type="qcurve" smooth="yes"/>
      <point x="1118.0" y="321.925373134"/>
      <point x="775.253731343" y="-25.0"/>
      <point x="526" y="-25" type="qcurve" smooth="yes"/>
      <point x="328.985074627" y="-25.0"/>
      <point x="80.0" y="188.044776119"/>
      <point x="80" y="397" type="qcurve" smooth="yes"/>
      <point x="80.0" y="720.880597015"/>
      <point x="506.014925373" y="1282.46268657"/>
    </contour>
    <contour>
      <point x="539" y="135" type="qcurve" smooth="yes"/>
      <point x="683.776119403" y="135.0"/>
      <point x="889.0" y="369.044776119"/>
      <point x="889" y="528" type="qcurve" smooth="yes"/>
      <point x="889.0" y="647.402985075"/>
      <point x="765.925373134" y="778.0"/>
      <point x="651" y="778" type="qcurve" smooth="yes"/>
      <point x="509.208955224" y="778.0"/>
      <point x="297.0" y="551.417910448"/>
      <point x="297" y="385" type="qcurve" smooth="yes"/>
      <point x="297.0" y="270.074626866"/>
      <point x="428.552238806" y="135.0"/>
    </contour>
  </outline>
</glyph>
<glyph name="seven" format="1">
  <advance width="1054.72"/>
  <unicode hex="0037"/>
  <outline>
    <contour>
      <point x="264" y="1475" type="line"/>
      <point x="1245" y="1475" type="line"/>
      <point x="1210" y="1339" type="line"/>
      <point x="935.373134328" y="1061.3880597"/>
      <point x="464.298507463" y="341.044776119"/>
      <point x="324" y="0" type="qcurve"/>
      <point x="80" y="0" type="line"/>
      <point x="212.835820896" y="307.462686567"/>
      <point x="675.373134328" y="1010.14925373"/>
      <point x="950" y="1290" type="qcurve"/>
      <point x="219" y="1290" type="line"/>
    </contour>
  </outline>
</glyph>
<glyph name="colon" format="1">
  <advance width="462.848"/>
  <unicode hex="003A"/>
  <outline>
    <contour>
      <point x="133" y="262" type="qcurve" smooth="yes"/>
      <point x="191.208955224" y="262.0"/>
      <point x="270.0" y="183.208955224"/>
      <point x="270" y="125" type="qcurve" smooth="yes"/>
      <point x="270.0" y="65.2985074627"/>
      <point x="191.208955224" y="-14.0"/>
      <point x="133" y="-14" type="qcurve" smooth="yes"/>
      <point x="73.2985074627" y="-14.0"/>
      <point x="-6.0" y="65.2985074627"/>
      <point x="-6" y="125" type="qcurve" smooth="yes"/>
      <point x="-6.0" y="183.208955224"/>
      <point x="73.2985074627" y="262.0"/>
    </contour>
    <contour>
      <point x="334" y="1085" type="qcurve" smooth="yes"/>
      <point x="393.701492537" y="1085.0"/>
      <point x="471.0" y="1005.70149254"/>
      <point x="471" y="946" type="qcurve" smooth="yes"/>
      <point x="471.0" y="886.298507463"/>
      <point x="393.701492537" y="807.0"/>
      <point x="334" y="807" type="qcurve" smooth="yes"/>
      <point x="274.298507463" y="807.0"/>
      <point x="195.0" y="886.298507463"/>
      <point x="195" y="946" type="qcurve" smooth="yes"/>
      <point x="195.0" y="1005.70149254"/>
      <point x="274.298507463" y="1085.0"/>
    </contour>
  </outline>
</glyph>
<glyph name="semicolon" format="1">
  <advance width="462.848"/>
  <unicode hex="003B"/>
  <outline>
    <contour>
      <point x="338" y="1085" type="qcurve" smooth="yes"/>
      <point x="397.701492537" y="1085.0"/>
      <point x="475.0" y="1005.70149254"/>
      <point x="475" y="946" type="qcurve" smooth="yes"/>
      <point x="475.0" y="886.298507463"/>
      <point x="397.701492537" y="807.0"/>
      <point x="338" y="807" type="qcurve" smooth="yes"/>
      <point x="278.298507463" y="807.0"/>
      <point x="199.0" y="886.298507463"/>
      <point x="199" y="946" type="qcurve" smooth="yes"/>
      <point x="199.0" y="1005.70149254"/>
      <point x="278.298507463" y="1085.0"/>
    </contour>
    <contour>
      <point x="53" y="266" type="line"/>
      <point x="301" y="266" type="line"/>
      <point x="0" y="-240" type="line"/>
      <point x="-133" y="-240" type="line"/>
    </contour>
  </outline>
</glyph>
<glyph name="question" format="1">
  <advance width="960.512"/>
  <unicode hex="003F"/>
  <outline>
    <contour>
      <point x="674" y="1499" type="qcurve" smooth="yes"/>
      <point x="841.910447761" y="1499.0"/>
      <point x="1044.0" y="1336.32835821"/>
      <point x="1044" y="1202" type="qcurve" smooth="yes"/>
      <point x="1044.0" y="1055.73134328"/>
      <point x="877.0" y="860.776119403"/>
      <point x="727" y="766" type="qcurve" smooth="yes"/>
      <point x="615.805970149" y="695.850746269"/>
      <point x="516.582089552" y="574.641791045"/>
      <point x="483" y="453" type="qcurve"/>
      <point x="336" y="453" type="line"/>
      <point x="362.119402985" y="631.358208955"/>
      <point x="475.164179104" y="802.671641791"/>
      <point x="608" y="887" type="qcurve" smooth="yes"/>
      <point x="702.776119403" y="948.194029851"/>
      <point x="821.0" y="1086.68656716"/>
      <point x="821" y="1174" type="qcurve" smooth="yes"/>
      <point x="821.0" y="1250.11940299"/>
      <point x="724.880597015" y="1325.0"/>
      <point x="651" y="1325" type="qcurve" smooth="yes"/>
      <point x="573.388059701" y="1325.0"/>
      <point x="433.373134328" y="1229.46268657"/>
      <point x="358" y="1122" type="qcurve"/>
      <point x="209" y="1217" type="line"/>
      <point x="300.791044776" y="1357.29850746"/>
      <point x="534.447761194" y="1499.0"/>
    </contour>
    <contour>
      <point x="338" y="254" type="qcurve" smooth="yes"/>
      <point x="394.71641791" y="254.0"/>
      <point x="471.0" y="177.208955224"/>
      <point x="471" y="119" type="qcurve" smooth="yes"/>
      <point x="471.0" y="62.2835820896"/>
      <point x="394.71641791" y="-14.0"/>
      <point x="338" y="-14" type="qcurve" smooth="yes"/>
      <point x="279.791044776" y="-14.0"/>
      <point x="203.0" y="62.2835820896"/>
      <point x="203" y="119" type="qcurve" smooth="yes"/>
      <point x="203.0" y="177.208955224"/>
      <point x="279.791044776" y="254.0"/>
    </contour>
  </outline>
</glyph>
<glyph name="at" format="1">
  <advance width="2002.944"/>
  <unicode hex="0040"/>
  <outline>
    <contour>
      <point x="1053" y="1499" type="qcurve" smooth="yes"/>
      <point x="1417.92537313" y="1499.0"/>
      <point x="1921.0" y="1050.65671642"/>
      <point x="1921" y="682" type="qcurve" smooth="yes"/>
      <point x="1921.0" y="400.656716418"/>
      <point x="1625.55223881" y="57.0"/>
      <point x="1436" y="57" type="qcurve" smooth="yes"/>
      <point x="1310.62686567" y="57.0"/>
      <point x="1179.68656716" y="192.791044776"/>
      <point x="1167" y="301" type="qcurve"/>
      <point x="1159" y="301" type="line"/>
      <point x="1090.34328358" y="188.313432836"/>
      <point x="915.776119403" y="57.0"/>
      <point x="821" y="57" type="qcurve" smooth="yes"/>
      <point x="700.104477612" y="57.0"/>
      <point x="559.0" y="239.059701493"/>
      <point x="559" y="401" type="qcurve" smooth="yes"/>
      <point x="559.0" y="638.313432836"/>
      <point x="776.149253731" y="1057.0"/>
      <point x="956" y="1057" type="qcurve" smooth="yes"/>
      <point x="1063.46268657" y="1057.0"/>
      <point x="1185.41791045" y="927.0"/>
      <point x="1219" y="827" type="qcurve"/>
      <point x="1227" y="825" type="line"/>
      <point x="1266" y="1055" type="line"/>
      <point x="1460" y="1014" type="line"/>
      <point x="1350" y="383" type="line" smooth="yes"/>
      <point x="1331.34328358" y="282.253731343"/>
      <point x="1399.71641791" y="143.0"/>
      <point x="1493" y="143" type="qcurve" smooth="yes"/>
      <point x="1624.34328358" y="143.0"/>
      <point x="1837.0" y="448.895522388"/>
      <point x="1837" y="678" type="qcurve" smooth="yes"/>
      <point x="1837.0" y="1022.02985075"/>
      <point x="1393.26865672" y="1427.0"/>
      <point x="1047" y="1427" type="qcurve" smooth="yes"/>
      <point x="685.805970149" y="1427.0"/>
      <point x="188.0" y="911.417910448"/>
      <point x="188" y="545" type="qcurve" smooth="yes"/>
      <point x="188.0" y="158.432835821"/>
      <point x="650.388059701" y="-322.0"/>
      <point x="1028" y="-322" type="qcurve" smooth="yes"/>
      <point x="1213.07462687" y="-322.0"/>
      <point x="1498.17910448" y="-246.626865672"/>
      <point x="1634" y="-172" type="qcurve"/>
      <point x="1669" y="-233" type="line"/>
      <point x="1527.20895522" y="-309.865671642"/>
      <point x="1222.50746269" y="-393.0"/>
      <point x="1024" y="-393" type="qcurve" smooth="yes"/>
      <point x="611.313432836" y="-393.0"/>
      <point x="102.0" y="122.850746269"/>
      <point x="102" y="543" type="qcurve" smooth="yes"/>
      <point x="102.0" y="945.985074627"/>
      <point x="664.194029851" y="1499.0"/>
    </contour>
    <contour>
      <point x="911" y="184" type="qcurve" smooth="yes"/>
      <point x="1018.46268657" y="184.0"/>
      <point x="1194.0" y="492.865671642"/>
      <point x="1194" y="666" type="qcurve" smooth="yes"/>
      <point x="1194.0" y="762.268656716"/>
      <point x="1101.10447761" y="915.0"/>
      <point x="1022" y="915" type="qcurve" smooth="yes"/>
      <point x="911.552238806" y="915.0"/>
      <point x="760.0" y="617.462686567"/>
      <point x="760" y="410" type="qcurve" smooth="yes"/>
      <point x="760.0" y="307.014925373"/>
      <point x="837.865671642" y="184.0"/>
    </contour>
  </outline>
</glyph>
<glyph name="B" format="1">
  <advance width="1255.424"/>
  <unicode hex="0042"/>
  <outline>
    <contour>
      <point x="848" y="1475" type="line" smooth="yes"/>
      <point x="1063.67164179" y="1475.0"/>
      <point x="1280.0" y="1306.52238806"/>
      <point x="1280" y="1161" type="qcurve" smooth="yes"/>
      <point x="1280.0" y="1013.23880597"/>
      <point x="1066.26865672" y="818.567164179"/>
      <point x="920" y="782" type="qcurve"/>
      <point x="920" y="774" type="line"/>
      <point x="1025.2238806" y="740.417910448"/>
      <point x="1161.0" y="595.895522388"/>
      <point x="1161" y="475" type="qcurve" smooth="yes"/>
      <point x="1161.0" y="256.343283582"/>
      <point x="825.358208955" y="0.0"/>
      <point x="547" y="0" type="qcurve" smooth="yes"/>
      <point x="12" y="0" type="line"/>
      <point x="379" y="1475" type="line"/>
    </contour>
    <contour>
      <point x="539" y="170" type="line" smooth="yes"/>
      <point x="721.835820896" y="170.0"/>
      <point x="944.0" y="328.52238806"/>
      <point x="944" y="483" type="qcurve" smooth="yes"/>
      <point x="944.0" y="577.776119403"/>
      <point x="807.0" y="705.0"/>
      <point x="657" y="705" type="qcurve" smooth="yes"/>
      <point x="414" y="705" type="line"/>
      <point x="281" y="170" type="line"/>
    </contour>
    <contour>
      <point x="700" y="860" type="line" smooth="yes"/>
      <point x="855.970149254" y="860.0"/>
      <point x="1049.0" y="1006.8358209"/>
      <point x="1049" y="1124" type="qcurve" smooth="yes"/>
      <point x="1049.0" y="1211.31343284"/>
      <point x="925.895522388" y="1305.0"/>
      <point x="805" y="1305" type="qcurve" smooth="yes"/>
      <point x="563" y="1305" type="line"/>
      <point x="453" y="860" type="line"/>
    </contour>
  </outline>
</glyph>
<glyph name="C" format="1">
  <advance width="1208.32"/>
  <unicode hex="0043"/>
  <outline>
    <contour>
      <point x="827" y="1499" type="qcurve" smooth="yes"/>
      <point x="1051.62686567" y="1499.0"/>
      <point x="1257.68656716" y="1237.64179104"/>
      <point x="1245" y="1016" type="qcurve"/>
      <point x="1018" y="973" type="line"/>
      <point x="1025.46268657" y="1143.89552239"/>
      <point x="925.417910448" y="1319.0"/>
      <point x="809" y="1319" type="qcurve" smooth="yes"/>
      <point x="666.462686567" y="1319.0"/>
      <point x="455.208955224" y="1020.1641791"/>
      <point x="397" y="803" type="qcurve" smooth="yes"/>
      <point x="369.388059701" y="703.746268657"/>
      <point x="344.0" y="537.149253731"/>
      <point x="344" y="467" type="qcurve" smooth="yes"/>
      <point x="344" y="461" type="line" smooth="yes"/>
      <point x="344.0" y="332.641791045"/>
      <point x="455.328358209" y="156.0"/>
      <point x="571" y="156" type="qcurve" smooth="yes"/>
      <point x="678.462686567" y="156.0"/>
      <point x="837.835820896" y="317.537313433"/>
      <point x="905" y="475" type="qcurve"/>
      <point x="1112" y="410" type="line"/>
      <point x="1015.73134328" y="194.328358209"/>
      <point x="748.014925373" y="-25.0"/>
      <point x="551" y="-25" type="qcurve" smooth="yes"/>
      <point x="345.776119403" y="-25.0"/>
      <point x="111.0" y="237.895522388"/>
      <point x="111" y="467" type="qcurve" smooth="yes"/>
      <point x="111" y="475" type="line" smooth="yes"/>
      <point x="111.0" y="537.686567164"/>
      <point x="128.582089552" y="687.373134328"/>
      <point x="145" y="762" type="qcurve" smooth="yes"/>
      <point x="217.388059701" y="1087.37313433"/>
      <point x="564.313432836" y="1499.0"/>
    </contour>
  </outline>
</glyph>
<glyph name="D" format="1">
  <advance width="1282.048"/>
  <unicode hex="0044"/>
  <outline>
    <contour>
      <point x="1270" y="967" type="qcurve" smooth="yes"/>
      <point x="1270" y="961" type="line" smooth="yes"/>
      <point x="1270.0" y="898.313432836"/>
      <point x="1256.67164179" y="779.656716418"/>
      <point x="1241" y="711" type="qcurve" smooth="yes"/>
      <point x="1160.40298507" y="361.0"/>
      <point x="736.955223881" y="0.0"/>
      <point x="428" y="0" type="qcurve" smooth="yes"/>
      <point x="12" y="0" type="line"/>
      <point x="379" y="1475" type="line"/>
      <point x="725" y="1475" type="line" smooth="yes"/>
      <point x="971.268656716" y="1475.0"/>
      <point x="1270.0" y="1225.20895522"/>
    </contour>
    <contour>
      <point x="995" y="696" type="qcurve" smooth="yes"/>
      <point x="1010.67164179" y="754.208955224"/>
      <point x="1028.0" y="886.298507463"/>
      <point x="1028" y="946" type="qcurve" smooth="yes"/>
      <point x="1028" y="954" type="line" smooth="yes"/>
      <point x="1028.0" y="1121.1641791"/>
      <point x="845.492537313" y="1294.0"/>
      <point x="694" y="1294" type="qcurve" smooth="yes"/>
      <point x="565" y="1294" type="line"/>
      <point x="287" y="180" type="line"/>
      <point x="455" y="180" type="line" smooth="yes"/>
      <point x="639.328358209" y="180.0"/>
      <point x="920.373134328" y="416.895522388"/>
    </contour>
  </outline>
</glyph>
<glyph name="I" format="1">
  <advance width="841.728"/>
  <unicode hex="0049"/>
  <outline>
    <contour>
      <point x="332" y="1475" type="line"/>
      <point x="977" y="1475" type="line"/>
      <point x="952" y="1374" type="line"/>
      <point x="745" y="1374" type="line"/>
      <point x="428" y="100" type="line"/>
      <point x="635" y="100" type="line"/>
      <point x="608" y="0" type="line"/>
      <point x="-37" y="0" type="line"/>
      <point x="-10" y="100" type="line"/>
      <point x="195" y="100" type="line"/>
      <point x="512" y="1374" type="line"/>
      <point x="307" y="1374" type="line"/>
    </contour>
  </outline>
</glyph>
<glyph name="M" format="1">
  <advance width="1746.944"/>
  <unicode hex="004D"/>
  <outline>
    <contour>
      <point x="1462" y="1475" type="line"/>
      <point x="1833" y="1475" type="line"/>
      <point x="1466" y="0" type="line"/>
      <point x="1247" y="0" type="line"/>
      <point x="1554" y="1231" type="line"/>
      <point x="1536" y="1231" type="line"/>
      <point x="854" y="0" type="line"/>
      <point x="614" y="0" type="line"/>
      <point x="547" y="1231" type="line"/>
      <point x="530" y="1231" type="line"/>
      <point x="223" y="0" type="line"/>
      <point x="12" y="0" type="line"/>
      <point x="379" y="1475" type="line"/>
      <point x="741" y="1475" type="line"/>
      <point x="801" y="299" type="line"/>
      <point x="815" y="299" type="line"/>
    </contour>
  </outline>
</glyph>
<glyph name="O" format="1">
  <advance width="1284.096"/>
  <unicode hex="004F"/>
  <outline>
    <contour>
      <point x="1274" y="1008" type="qcurve" smooth="yes"/>
      <point x="1274" y="999" type="line" smooth="yes"/>
      <point x="1274.0" y="931.835820896"/>
      <point x="1254.1641791" y="773.880597015"/>
      <point x="1237" y="700" type="qcurve" smooth="yes"/>
      <point x="1165.35820896" y="379.104477612"/>
      <point x="819.179104478" y="-25.0"/>
      <point x="555" y="-25" type="qcurve" smooth="yes"/>
      <point x="349.029850746" y="-25.0"/>
      <point x="111.0" y="237.895522388"/>
      <point x="111" y="467" type="qcurve" smooth="yes"/>
      <point x="111" y="475" type="line" smooth="yes"/>
      <point x="111.0" y="542.164179104"/>
      <point x="130.582089552" y="700.865671642"/>
      <point x="147" y="774" type="qcurve" smooth="yes"/>
      <point x="219.388059701" y="1094.89552239"/>
      <point x="564.820895522" y="1499.0"/>
      <point x="829" y="1499" type="qcurve" smooth="yes"/>
      <point x="1035.71641791" y="1499.0"/>
      <point x="1274.0" y="1237.10447761"/>
    </contour>
    <contour>
      <point x="985" y="664" type="qcurve" smooth="yes"/>
      <point x="1011.11940299" y="761.76119403"/>
      <point x="1038.0" y="936.597014925"/>
      <point x="1038" y="1006" type="qcurve" smooth="yes"/>
      <point x="1038" y="1012" type="line" smooth="yes"/>
      <point x="1038.0" y="1140.35820896"/>
      <point x="926.910447761" y="1319.0"/>
      <point x="809" y="1319" type="qcurve" smooth="yes"/>
      <point x="670.194029851" y="1319.0"/>
      <point x="458.194029851" y="1034.13432836"/>
      <point x="397" y="811" type="qcurve" smooth="yes"/>
      <point x="370.880597015" y="713.23880597"/>
      <point x="344.0" y="537.656716418"/>
      <point x="344" y="469" type="qcurve" smooth="yes"/>
      <point x="344" y="463" type="line" smooth="yes"/>
      <point x="344.0" y="334.641791045"/>
      <point x="455.835820896" y="156.0"/>
      <point x="573" y="156" type="qcurve" smooth="yes"/>
      <point x="714.044776119" y="156.0"/>
      <point x="923.805970149" y="440.865671642"/>
    </contour>
  </outline>
</glyph>
<glyph name="P" format="1">
  <advance width="1181.696"/>
  <unicode hex="0050"/>
  <outline>
    <contour>
      <point x="793" y="1475" type="line" smooth="yes"/>
      <point x="1012.40298507" y="1475.0"/>
      <point x="1247.0" y="1288.11940299"/>
      <point x="1247" y="1112" type="qcurve" smooth="yes"/>
      <point x="1247.0" y="878.417910448"/>
      <point x="904.641791045" y="596.0"/>
      <point x="633" y="596" type="qcurve" smooth="yes"/>
      <point x="395" y="596" type="line"/>
      <point x="246" y="0" type="line"/>
      <point x="12" y="0" type="line"/>
      <point x="379" y="1475" type="line"/>
    </contour>
    <contour>
      <point x="631" y="770" type="line" smooth="yes"/>
      <point x="801.895522388" y="770.0"/>
      <point x="1014.0" y="942.0"/>
      <point x="1014" y="1092" type="qcurve" smooth="yes"/>
      <point x="1014.0" y="1195.73134328"/>
      <point x="883.820895522" y="1305.0"/>
      <point x="748" y="1305" type="qcurve" smooth="yes"/>
      <point x="563" y="1305" type="line"/>
      <point x="430" y="770" type="line"/>
    </contour>
  </outline>
</glyph>
<glyph name="Q" format="1">
  <advance width="1284.096"/>
  <unicode hex="0051"/>
  <outline>
    <contour>
      <point x="1274" y="1008" type="qcurve" smooth="yes"/>
      <point x="1274" y="999" type="line" smooth="yes"/>
      <point x="1274.0" y="931.835820896"/>
      <point x="1254.1641791" y="773.880597015"/>
      <point x="1237" y="700" type="qcurve" smooth="yes"/>
      <point x="1192.97014925" y="502.985074627"/>
      <point x="1024.40298507" y="189.28358209"/>
      <point x="905" y="96" type="qcurve"/>
      <point x="946" y="12" type="line" smooth="yes"/>
      <point x="970.626865672" y="-38.0"/>
      <point x="1040.26865672" y="-82.0"/>
      <point x="1094" y="-82" type="qcurve" smooth="yes"/>
      <point x="1114.89552239" y="-82.0"/>
      <point x="1152.35820896" y="-75.9701492537"/>
      <point x="1174" y="-70" type="qcurve"/>
      <point x="1137" y="-217" type="line"/>
      <point x="1115.35820896" y="-222.970149254"/>
      <point x="1075.89552239" y="-227.0"/>
      <point x="1055" y="-227" type="qcurve" smooth="yes"/>
      <point x="963.208955224" y="-227.0"/>
      <point x="843.567164179" y="-164.298507463"/>
      <point x="807" y="-74" type="qcurve" smooth="yes"/>
      <point x="770" y="16" type="line"/>
      <point x="721.492537313" y="-3.40298507463"/>
      <point x="611.71641791" y="-25.0"/>
      <point x="555" y="-25" type="qcurve" smooth="yes"/>
      <point x="349.029850746" y="-25.0"/>
      <point x="111.0" y="237.895522388"/>
      <point x="111" y="467" type="qcurve" smooth="yes"/>
      <point x="111" y="475" type="line" smooth="yes"/>
      <point x="111.0" y="542.164179104"/>
      <point x="130.582089552" y="700.865671642"/>
      <point x="147" y="774" type="qcurve" smooth="yes"/>
      <point x="219.388059701" y="1094.89552239"/>
      <point x="564.820895522" y="1499.0"/>
      <point x="829" y="1499" type="qcurve" smooth="yes"/>
      <point x="1035.71641791" y="1499.0"/>
      <point x="1274.0" y="1237.10447761"/>
    </contour>
    <contour>
      <point x="983" y="653" type="qcurve" smooth="yes"/>
      <point x="1010.6119403" y="752.253731343"/>
      <point x="1038.0" y="936.597014925"/>
      <point x="1038" y="1006" type="qcurve" smooth="yes"/>
      <point x="1038" y="1012" type="line" smooth="yes"/>
      <point x="1038.0" y="1140.35820896"/>
      <point x="926.910447761" y="1319.0"/>
      <point x="809" y="1319" type="qcurve" smooth="yes"/>
      <point x="670.194029851" y="1319.0"/>
      <point x="456.194029851" y="1026.13432836"/>
      <point x="395" y="803" type="qcurve" smooth="yes"/>
      <point x="368.880597015" y="705.23880597"/>
      <point x="340.0" y="521.656716418"/>
      <point x="340" y="453" type="qcurve" smooth="yes"/>
      <point x="340" y="446" type="line" smooth="yes"/>
      <point x="340.0" y="316.149253731"/>
      <point x="451.835820896" y="137.0"/>
      <point x="569" y="137" type="qcurve" smooth="yes"/>
      <point x="609.298507463" y="137.0"/>
      <point x="682.910447761" y="159.104477612"/>
      <point x="715" y="180" type="qcurve"/>
      <point x="612" y="428" type="line"/>
      <point x="713" y="477" type="line"/>
      <point x="809" y="266" type="line"/>
      <point x="864.223880597" y="333.164179104"/>
      <point x="949.417910448" y="532.850746269"/>
    </contour>
  </outline>
</glyph>
<glyph name="U" format="1">
  <advance width="1280.0"/>
  <unicode hex="0055"/>
  <outline>
    <contour>
      <point x="1157" y="1475" type="line"/>
      <point x="1378" y="1475" type="line"/>
      <point x="1128" y="479" type="line" smooth="yes"/>
      <point x="1062.32835821" y="216.313432836"/>
      <point x="769.746268657" y="-25.0"/>
      <point x="569" y="-25" type="qcurve" smooth="yes"/>
      <point x="361.537313433" y="-25.0"/>
      <point x="117.0" y="166.955223881"/>
      <point x="117" y="358" type="qcurve" smooth="yes"/>
      <point x="117.0" y="411.731343284"/>
      <point x="131.059701493" y="523.0"/>
      <point x="143" y="573" type="qcurve" smooth="yes"/>
      <point x="367" y="1475" type="line"/>
      <point x="602" y="1475" type="line"/>
      <point x="377" y="567" type="line" smooth="yes"/>
      <point x="364.313432836" y="518.492537313"/>
      <point x="350.0" y="425.059701493"/>
      <point x="350" y="387" type="qcurve" smooth="yes"/>
      <point x="350.0" y="280.28358209"/>
      <point x="470.567164179" y="162.0"/>
      <point x="584" y="162" type="qcurve" smooth="yes"/>
      <point x="696.686567164" y="162.0"/>
      <point x="868.970149254" y="322.388059701"/>
      <point x="913" y="500" type="qcurve" smooth="yes"/>
    </contour>
  </outline>
</glyph>
<glyph name="V" format="1">
  <advance width="1298.432"/>
  <unicode hex="0056"/>
  <outline>
    <contour>
      <point x="1243" y="1475" type="line"/>
      <point x="1487" y="1475" type="line"/>
      <point x="643" y="-12" type="line"/>
      <point x="381" y="-12" type="line"/>
      <point x="279" y="1475" type="line"/>
      <point x="512" y="1475" type="line"/>
      <point x="563" y="236" type="line"/>
      <point x="575" y="236" type="line"/>
    </contour>
  </outline>
</glyph>
<glyph name="Z" format="1">
  <advance width="1132.544"/>
  <unicode hex="005A"/>
  <outline>
    <contour>
      <point x="340" y="1475" type="line"/>
      <point x="1298" y="1475" type="line"/>
      <point x="1257" y="1315" type="line"/>
      <point x="248" y="182" type="line"/>
      <point x="975" y="182" type="line"/>
      <point x="930" y="0" type="line"/>
      <point x="-66" y="0" type="line"/>
      <point x="-25" y="160" type="line"/>
      <point x="985" y="1292" type="line"/>
      <point x="293" y="1292" type="line"/>
    </contour>
  </outline>
</glyph>
<glyph name="backslash" format="1">
  <advance width="835.584"/>
  <unicode hex="005C"/>
  <outline>
    <contour>
      <point x="461" y="1505" type="line"/>
      <point x="686" y="-195" type="line"/>
      <point x="494" y="-195" type="line"/>
      <point x="268" y="1505" type="line"/>
    </contour>
  </outline>
</glyph>
<glyph name="asciicircum" format="1">
  <advance width="1126.4"/>
  <unicode hex="005E"/>
  <outline>
    <contour>
      <point x="901" y="1485" type="line"/>
      <point x="1114" y="834" type="line"/>
      <point x="973" y="834" type="line"/>
      <point x="754" y="1290" type="line"/>
      <point x="307" y="834" type="line"/>
      <point x="154" y="834" type="line"/>
      <point x="690" y="1485" type="line"/>
    </contour>
  </outline>
</glyph>
<glyph name="c" format="1">
  <advance width="946.176"/>
  <unicode hex="0063"/>
  <outline>
    <contour>
      <point x="621" y="1094" type="qcurve" smooth="yes"/>
      <point x="790.402985075" y="1094.0"/>
      <point x="940.029850746" y="913.014925373"/>
      <point x="946" y="766" type="qcurve"/>
      <point x="741" y="735" type="line"/>
      <point x="736.52238806" y="837.23880597"/>
      <point x="676.119402985" y="948.0"/>
      <point x="600" y="948" type="qcurve" smooth="yes"/>
      <point x="496.268656716" y="948.0"/>
      <point x="349.776119403" y="738.671641791"/>
      <point x="305" y="573" type="qcurve" smooth="yes"/>
      <point x="287.089552239" y="508.820895522"/>
      <point x="270.0" y="391.731343284"/>
      <point x="270" y="338" type="qcurve" smooth="yes"/>
      <point x="270" y="334" type="line" smooth="yes"/>
      <point x="270.0" y="230.268656716"/>
      <point x="360.358208955" y="125.0"/>
      <point x="432" y="125" type="qcurve" smooth="yes"/>
      <point x="494.686567164" y="125.0"/>
      <point x="605.28358209" y="219.208955224"/>
      <point x="662" y="311" type="qcurve"/>
      <point x="840" y="248" type="line"/>
      <point x="764.626865672" y="124.119402985"/>
      <point x="559.28358209" y="-20.0"/>
      <point x="416" y="-20" type="qcurve" smooth="yes"/>
      <point x="255.552238806" y="-20.0"/>
      <point x="55.0" y="171.671641791"/>
      <point x="55" y="356" type="qcurve" smooth="yes"/>
      <point x="55" y="360" type="line" smooth="yes"/>
      <point x="55.0" y="409.253731343"/>
      <point x="72.5671641791" y="527.28358209"/>
      <point x="86" y="584" type="qcurve" smooth="yes"/>
      <point x="141.223880597" y="804.149253731"/>
      <point x="408.313432836" y="1094.0"/>
    </contour>
  </outline>
</glyph>
<glyph name="d" format="1">
  <advance width="1077.248"/>
  <unicode hex="0064"/>
  <outline>
    <contour>
      <point x="977" y="1507" type="line"/>
      <point x="1208" y="1554" type="line"/>
      <point x="827" y="29" type="line"/>
      <point x="598" y="-18" type="line"/>
      <point x="664" y="252" type="line"/>
      <point x="653" y="252" type="line"/>
      <point x="537.328358209" y="103.492537313"/>
      <point x="368.074626866" y="-18.0"/>
      <point x="283" y="-18" type="qcurve" smooth="yes"/>
      <point x="165.089552239" y="-18.0"/>
      <point x="51.0" y="161.686567164"/>
      <point x="51" y="299" type="qcurve" smooth="yes"/>
      <point x="51" y="303" type="line" smooth="yes"/>
      <point x="51.0" y="614.940298507"/>
      <point x="353.641791045" y="1092.0"/>
      <point x="532" y="1092" type="qcurve" smooth="yes"/>
      <point x="630.507462687" y="1092.0"/>
      <point x="743.805970149" y="981.910447761"/>
      <point x="805" y="864" type="qcurve"/>
      <point x="817" y="864" type="line"/>
    </contour>
    <contour>
      <point x="403" y="135" type="qcurve" smooth="yes"/>
      <point x="520.910447761" y="135.0"/>
      <point x="768.0" y="567.134328358"/>
      <point x="768" y="694" type="qcurve" smooth="yes"/>
      <point x="768.0" y="798.47761194"/>
      <point x="671.134328358" y="952.0"/>
      <point x="598" y="952" type="qcurve" smooth="yes"/>
      <point x="477.104477612" y="952.0"/>
      <point x="270.0" y="555.701492537"/>
      <point x="270" y="346" type="qcurve" smooth="yes"/>
      <point x="270.0" y="252.71641791"/>
      <point x="326.880597015" y="135.0"/>
    </contour>
  </outline>
</glyph>
<glyph name="e" format="1">
  <advance width="970.752"/>
  <unicode hex="0065"/>
  <outline>
    <contour>
      <point x="604" y="1094" type="qcurve" smooth="yes"/>
      <point x="778.626865672" y="1094.0"/>
      <point x="926.0" y="885.029850746"/>
      <point x="926" y="741" type="qcurve" smooth="yes"/>
      <point x="926.0" y="685.029850746"/>
      <point x="904.910447761" y="553.179104478"/>
      <point x="887" y="489" type="qcurve"/>
      <point x="268" y="489" type="line"/>
      <point x="263.52238806" y="460.641791045"/>
      <point x="258.0" y="402.104477612"/>
      <point x="258" y="373" type="qcurve" smooth="yes"/>
      <point x="258" y="369" type="line" smooth="yes"/>
      <point x="258.0" y="254.074626866"/>
      <point x="364.731343284" y="135.0"/>
      <point x="461" y="135" type="qcurve" smooth="yes"/>
      <point x="531.149253731" y="135.0"/>
      <point x="677.164179104" y="190.746268657"/>
      <point x="760" y="240" type="qcurve"/>
      <point x="795" y="98" type="line"/>
      <point x="703.208955224" y="43.5223880597"/>
      <point x="531.194029851" y="-18.0"/>
      <point x="420" y="-18" type="qcurve" smooth="yes"/>
      <point x="243.880597015" y="-18.0"/>
      <point x="55.0" y="177.641791045"/>
      <point x="55" y="356" type="qcurve" smooth="yes"/>
      <point x="55" y="360" type="line" smooth="yes"/>
      <point x="55.0" y="410.746268657"/>
      <point x="72.5671641791" y="529.28358209"/>
      <point x="86" y="586" type="qcurve" smooth="yes"/>
      <point x="144.208955224" y="816.597014925"/>
      <point x="418.925373134" y="1094.0"/>
    </contour>
    <contour>
      <point x="707" y="592" type="line"/>
      <point x="717.447761194" y="637.52238806"/>
      <point x="729.0" y="718.417910448"/>
      <point x="729" y="752" type="qcurve" smooth="yes"/>
      <point x="729.0" y="838.567164179"/>
      <point x="669.104477612" y="961.0"/>
      <point x="590" y="961" type="qcurve" smooth="yes"/>
      <point x="495.223880597" y="961.0"/>
      <point x="328.552238806" y="747.970149254"/>
      <point x="289" y="592" type="qcurve"/>
    </contour>
  </outline>
</glyph>
<glyph name="f" format="1">
  <advance width="724.992"/>
  <unicode hex="0066"/>
  <outline>
    <contour>
      <point x="778" y="1554" type="qcurve" smooth="yes"/>
      <point x="848.149253731" y="1554.0"/>
      <point x="957.731343284" y="1532.41791045"/>
      <point x="1004" y="1516" type="qcurve"/>
      <point x="965" y="1360" type="line"/>
      <point x="932.910447761" y="1376.41791045"/>
      <point x="851.47761194" y="1403.0"/>
      <point x="797" y="1403" type="qcurve" smooth="yes"/>
      <point x="731.328358209" y="1403.0"/>
      <point x="643.388059701" y="1327.80597015"/>
      <point x="621" y="1239" type="qcurve" smooth="yes"/>
      <point x="578" y="1067" type="line"/>
      <point x="840" y="1067" type="line"/>
      <point x="801" y="915" type="line"/>
      <point x="541" y="915" type="line"/>
      <point x="219" y="-385" type="line"/>
      <point x="2" y="-385" type="line"/>
      <point x="326" y="915" type="line"/>
      <point x="123" y="915" type="line"/>
      <point x="160" y="1067" type="line"/>
      <point x="362" y="1067" type="line"/>
      <point x="412" y="1262" type="line" smooth="yes"/>
      <point x="451.552238806" y="1419.46268657"/>
      <point x="626.507462687" y="1554.0"/>
    </contour>
  </outline>
</glyph>
<glyph name="i" format="1">
  <advance width="495.616"/>
  <unicode hex="0069"/>
  <outline>
    <contour>
      <point x="272" y="1073" type="line"/>
      <point x="492" y="1073" type="line"/>
      <point x="225" y="0" type="line"/>
      <point x="4" y="0" type="line"/>
    </contour>
    <contour>
      <point x="360" y="1483" type="line"/>
      <point x="608" y="1483" type="line"/>
      <point x="557" y="1278" type="line"/>
      <point x="309" y="1278" type="line"/>
    </contour>
  </outline>
</glyph>
<glyph name="k" format="1">
  <advance width="1015.808"/>
  <unicode hex="006B"/>
  <outline>
    <contour>
      <point x="879" y="1073" type="line"/>
      <point x="1124" y="1073" type="line"/>
      <point x="600" y="545" type="line"/>
      <point x="874" y="0" type="line"/>
      <point x="639" y="0" type="line"/>
      <point x="381" y="547" type="line"/>
      <point x="381" y="557" type="line"/>
    </contour>
    <contour>
      <point x="365" y="1507" type="line"/>
      <point x="596" y="1554" type="line"/>
      <point x="209" y="0" type="line"/>
      <point x="-10" y="0" type="line"/>
    </contour>
  </outline>
</glyph>
<glyph name="r" format="1">
  <advance width="798.72"/>
  <unicode hex="0072"/>
  <outline>
    <contour>
      <point x="389" y="682" type="line"/>
      <point x="541.985074627" y="890.208955224"/>
      <point x="786.104477612" y="1088.26865672"/>
      <point x="907" y="1092" type="qcurve"/>
      <point x="850" y="866" type="line"/>
      <point x="723.134328358" y="855.552238806"/>
      <point x="476.865671642" y="696.343283582"/>
      <point x="350" y="565" type="qcurve"/>
      <point x="209" y="0" type="line"/>
      <point x="-10" y="0" type="line"/>
      <point x="250" y="1044" type="line"/>
      <point x="481" y="1092" type="line"/>
      <point x="379" y="682" type="line"/>
    </contour>
  </outline>
</glyph>
<glyph name="s" format="1">
  <advance width="870.4"/>
  <unicode hex="0073"/>
  <outline>
    <contour>
      <point x="520" y="1094" type="qcurve" smooth="yes"/>
      <point x="639.402985075" y="1094.0"/>
      <point x="814.820895522" y="1007.13432836"/>
      <point x="879" y="934" type="qcurve"/>
      <point x="748" y="825" type="line"/>
      <point x="692.776119403" y="889.179104478"/>
      <point x="572.179104478" y="954.0"/>
      <point x="508" y="954" type="qcurve" smooth="yes"/>
      <point x="431.880597015" y="954.0"/>
      <point x="338.0" y="869.686567164"/>
      <point x="338" y="807" type="qcurve" smooth="yes"/>
      <point x="338.0" y="751.776119403"/>
      <point x="409.76119403" y="672.52238806"/>
      <point x="512" y="627" type="qcurve" smooth="yes"/>
      <point x="644.835820896" y="567.298507463"/>
      <point x="766.0" y="428.23880597"/>
      <point x="766" y="326" type="qcurve" smooth="yes"/>
      <point x="766.0" y="173.014925373"/>
      <point x="542.880597015" y="-18.0"/>
      <point x="369" y="-18" type="qcurve" smooth="yes"/>
      <point x="229.447761194" y="-18.0"/>
      <point x="31.1492537313" y="76.1492537313"/>
      <point x="-39" y="156" type="qcurve"/>
      <point x="84" y="270" type="line"/>
      <point x="143.701492537" y="199.850746269"/>
      <point x="295.179104478" y="119.0"/>
      <point x="381" y="119" type="qcurve" smooth="yes"/>
      <point x="468.313432836" y="119.0"/>
      <point x="569.0" y="212.611940299"/>
      <point x="569" y="285" type="qcurve" smooth="yes"/>
      <point x="569.0" y="342.462686567"/>
      <point x="492.701492537" y="418.76119403"/>
      <point x="383" y="471" type="qcurve" smooth="yes"/>
      <point x="259.119402985" y="527.71641791"/>
      <point x="141.0" y="666.776119403"/>
      <point x="141" y="772" type="qcurve" smooth="yes"/>
      <point x="141.0" y="906.328358209"/>
      <point x="350.597014925" y="1094.0"/>
    </contour>
  </outline>
</glyph>
<glyph name="t" format="1">
  <advance width="786.432"/>
  <unicode hex="0074"/>
  <outline>
    <contour>
      <point x="563" y="1067" type="line"/>
      <point x="834" y="1067" type="line"/>
      <point x="795" y="915" type="line"/>
      <point x="526" y="915" type="line"/>
      <point x="377" y="319" type="line" smooth="yes"/>
      <point x="372.52238806" y="298.104477612"/>
      <point x="365.0" y="256.417910448"/>
      <point x="365" y="240" type="qcurve" smooth="yes"/>
      <point x="365.0" y="195.223880597"/>
      <point x="422.492537313" y="150.0"/>
      <point x="471" y="150" type="qcurve" smooth="yes"/>
      <point x="512.044776119" y="150.0"/>
      <point x="601.820895522" y="175.895522388"/>
      <point x="666" y="205" type="qcurve"/>
      <point x="621" y="33" type="line"/>
      <point x="551.597014925" y="5.38805970149"/>
      <point x="433.656716418" y="-20.0"/>
      <point x="365" y="-20" type="qcurve" smooth="yes"/>
      <point x="256.044776119" y="-20.0"/>
      <point x="137.0" y="81.7014925373"/>
      <point x="137" y="172" type="qcurve" smooth="yes"/>
      <point x="137.0" y="195.134328358"/>
      <point x="145.28358209" y="257.388059701"/>
      <point x="152" y="285" type="qcurve" smooth="yes"/>
      <point x="309" y="915" type="line"/>
      <point x="121" y="915" type="line"/>
      <point x="158" y="1067" type="line"/>
      <point x="346" y="1067" type="line"/>
      <point x="442" y="1450" type="line"/>
      <point x="670" y="1495" type="line"/>
    </contour>
  </outline>
</glyph>
<glyph name="u" format="1">
  <advance width="1050.624"/>
  <unicode hex="0075"/>
  <outline>
    <contour>
      <point x="840" y="1073" type="line"/>
      <point x="1059" y="1073" type="line"/>
      <point x="799" y="29" type="line"/>
      <point x="569" y="-18" type="line"/>
      <point x="639" y="262" type="line"/>
      <point x="627" y="262" type="line"/>
      <point x="515.059701493" y="127.671641791"/>
      <point x="334.492537313" y="-12.0"/>
      <point x="233" y="-12" type="qcurve" smooth="yes"/>
      <point x="136.731343284" y="-12.0"/>
      <point x="39.0" y="91.1940298507"/>
      <point x="39" y="180" type="qcurve" smooth="yes"/>
      <point x="39.0" y="206.119402985"/>
      <point x="48.0447761194" y="275.925373134"/>
      <point x="57" y="311" type="qcurve" smooth="yes"/>
      <point x="248" y="1073" type="line"/>
      <point x="467" y="1073" type="line"/>
      <point x="289" y="358" type="line" smooth="yes"/>
      <point x="283.029850746" y="332.626865672"/>
      <point x="274.0" y="279.641791045"/>
      <point x="274" y="258" type="qcurve" smooth="yes"/>
      <point x="274.0" y="209.492537313"/>
      <point x="325.268656716" y="154.0"/>
      <point x="379" y="154" type="qcurve" smooth="yes"/>
      <point x="434.223880597" y="154.0"/>
      <point x="574.71641791" y="261.089552239"/>
      <point x="668" y="379" type="qcurve"/>
    </contour>
  </outline>
</glyph>
<glyph name="y" format="1">
  <advance width="1009.664"/>
  <unicode hex="0079"/>
  <outline>
    <contour>
      <point x="881" y="1073" type="line"/>
      <point x="1104" y="1073" type="line"/>
      <point x="401" y="-158" type="line" smooth="yes"/>
      <point x="321.895522388" y="-295.313432836"/>
      <point x="161.955223881" y="-393.0"/>
      <point x="53" y="-393" type="qcurve" smooth="yes"/>
      <point x="-21.6268656716" y="-393.0"/>
      <point x="-130.985074627" y="-367.134328358"/>
      <point x="-178" y="-344" type="qcurve"/>
      <point x="-141" y="-190" type="line"/>
      <point x="-88" y="-190" type="line"/>
      <point x="-69.3432835821" y="-230.298507463"/>
      <point x="-11.7462686567" y="-272.0"/>
      <point x="39" y="-272" type="qcurve" smooth="yes"/>
      <point x="78.552238806" y="-272.0"/>
      <point x="153.432835821" y="-225.194029851"/>
      <point x="190" y="-164" type="qcurve" smooth="yes"/>
      <point x="262" y="-45" type="line"/>
      <point x="174" y="1073" type="line"/>
      <point x="391" y="1073" type="line"/>
      <point x="422" y="205" type="line"/>
    </contour>
  </outline>
</glyph>
<glyph name="braceleft" format="1">
  <advance width="843.776"/>
  <unicode hex="007B"/>
  <outline>
    <contour>
      <point x="776" y="1475" type="qcurve" smooth="yes"/>
      <point x="1016" y="1475" type="line"/>
      <point x="991" y="1372" type="line"/>
      <point x="846" y="1372" type="line" smooth="yes"/>
      <point x="760.179104478" y="1372.0"/>
      <point x="664.164179104" y="1302.1641791"/>
      <point x="647" y="1235" type="qcurve" smooth="yes"/>
      <point x="629.089552239" y="1164.85074627"/>
      <point x="630.149253731" y="993.358208955"/>
      <point x="610" y="915" type="qcurve" smooth="yes"/>
      <point x="579.402985075" y="794.850746269"/>
      <point x="435.731343284" y="690.358208955"/>
      <point x="332" y="662" type="qcurve"/>
      <point x="328" y="645" type="line"/>
      <point x="411.582089552" y="617.388059701"/>
      <point x="487.0" y="538.641791045"/>
      <point x="487" y="467" type="qcurve" smooth="yes"/>
      <point x="487.0" y="364.76119403"/>
      <point x="354.0" y="122.820895522"/>
      <point x="354" y="37" type="qcurve" smooth="yes"/>
      <point x="354.0" y="-9.26865671642"/>
      <point x="419.835820896" y="-61.0"/>
      <point x="487" y="-61" type="qcurve" smooth="yes"/>
      <point x="633" y="-61" type="line"/>
      <point x="606" y="-164" type="line"/>
      <point x="381" y="-164" type="line" smooth="yes"/>
      <point x="258.611940299" y="-164.0"/>
      <point x="145.0" y="-73.0746268657"/>
      <point x="145" y="12" type="qcurve" smooth="yes"/>
      <point x="145.0" y="126.925373134"/>
      <point x="283.0" y="362.731343284"/>
      <point x="283" y="459" type="qcurve" smooth="yes"/>
      <point x="283.0" y="527.656716418"/>
      <point x="169.925373134" y="604.0"/>
      <point x="55" y="604" type="qcurve"/>
      <point x="80" y="707" type="line"/>
      <point x="194.179104478" y="707.0"/>
      <point x="371.388059701" y="798.791044776"/>
      <point x="399" y="907" type="qcurve" smooth="yes"/>
      <point x="416.164179104" y="977.149253731"/>
      <point x="422.089552239" y="1167.86567164"/>
      <point x="440" y="1241" type="qcurve" smooth="yes"/>
      <point x="469.104477612" y="1358.91044776"/>
      <point x="634.208955224" y="1475.0"/>
    </contour>
  </outline>
</glyph>
<glyph name="bar" format="1">
  <advance width="507.904"/>
  <unicode hex="007C"/>
  <outline>
    <contour>
      <point x="414" y="1561" type="line"/>
      <point x="600" y="1561" type="line"/>
      <point x="117" y="-385" type="line"/>
      <point x="-70" y="-385" type="line"/>
    </contour>
  </outline>
</glyph>
<glyph name="braceright" format="1">
  <advance width="843.776"/>
  <unicode hex="007D"/>
  <outline>
    <contour>
      <point x="621" y="852" type="qcurve" smooth="yes"/>
      <point x="621.0" y="783.343283582"/>
      <point x="732.567164179" y="707.0"/>
      <point x="846" y="707" type="qcurve"/>
      <point x="821" y="604" type="line"/>
      <point x="706.820895522" y="604.0"/>
      <point x="529.611940299" y="511.955223881"/>
      <point x="502" y="403" type="qcurve" smooth="yes"/>
      <point x="484.835820896" y="332.850746269"/>
      <point x="478.910447761" y="143.134328358"/>
      <point x="461" y="70" type="qcurve" smooth="yes"/>
      <point x="431.895522388" y="-47.9104477612"/>
      <point x="268.791044776" y="-164.0"/>
      <point x="127" y="-164" type="qcurve" smooth="yes"/>
      <point x="-115" y="-164" type="line"/>
      <point x="-90" y="-61" type="line"/>
      <point x="55" y="-61" type="line" smooth="yes"/>
      <point x="140.820895522" y="-61.0"/>
      <point x="236.835820896" y="8.83582089552"/>
      <point x="254" y="76" type="qcurve" smooth="yes"/>
      <point x="272.656716418" y="146.149253731"/>
      <point x="270.850746269" y="317.388059701"/>
      <point x="291" y="395" type="qcurve" smooth="yes"/>
      <point x="320.104477612" y="515.895522388"/>
      <point x="465.268656716" y="619.895522388"/>
      <point x="569" y="649" type="qcurve"/>
      <point x="573" y="666" type="line"/>
      <point x="489.417910448" y="692.865671642"/>
      <point x="414.0" y="772.358208955"/>
      <point x="414" y="844" type="qcurve" smooth="yes"/>
      <point x="414.0" y="946.23880597"/>
      <point x="547.0" y="1188.17910448"/>
      <point x="547" y="1274" type="qcurve" smooth="yes"/>
      <point x="547.0" y="1319.52238806"/>
      <point x="481.164179104" y="1372.0"/>
      <point x="414" y="1372" type="qcurve" smooth="yes"/>
      <point x="268" y="1372" type="line"/>
      <point x="295" y="1475" type="line"/>
      <point x="522" y="1475" type="line" smooth="yes"/>
      <point x="642.895522388" y="1475.0"/>
      <point x="756.0" y="1383.82089552"/>
      <point x="756" y="1298" type="qcurve" smooth="yes"/>
      <point x="756.0" y="1183.82089552"/>
      <point x="621.0" y="948.268656716"/>
    </contour>
  </outline>
</glyph>
<glyph name="exclamdown" format="1">
  <advance width="534.528"/>
  <unicode hex="00A1"/>
  <outline>
    <contour>
      <point x="467" y="1489" type="qcurve" smooth="yes"/>
      <point x="523.71641791" y="1489.0"/>
      <point x="600.0" y="1412.71641791"/>
      <point x="600" y="1356" type="qcurve" smooth="yes"/>
      <point x="600.0" y="1297.79104478"/>
      <point x="523.71641791" y="1221.0"/>
      <point x="467" y="1221" type="qcurve" smooth="yes"/>
      <point x="408.791044776" y="1221.0"/>
      <point x="332.0" y="1297.79104478"/>
      <point x="332" y="1356" type="qcurve" smooth="yes"/>
      <point x="332.0" y="1412.71641791"/>
      <point x="408.791044776" y="1489.0"/>
    </contour>
    <contour>
      <point x="328" y="1022" type="line"/>
      <point x="453" y="1022" type="line"/>
      <point x="264" y="0" type="line"/>
      <point x="-4" y="0" type="line"/>
    </contour>
  </outline>
</glyph>
<glyph name="cent" format="1">
  <advance width="978.944"/>
  <unicode hex="00A2"/>
  <outline>
    <contour>
      <point x="961" y="1268" type="line"/>
      <point x="1092" y="1268" type="line"/>
      <point x="328" y="156" type="line"/>
      <point x="350.388059701" y="138.835820896"/>
      <point x="407.910447761" y="123.0"/>
      <point x="440" y="123" type="qcurve" smooth="yes"/>
      <point x="505.671641791" y="123.0"/>
      <point x="624.805970149" y="211.208955224"/>
      <point x="686" y="303" type="qcurve"/>
      <point x="844" y="248" type="line"/>
      <point x="768.626865672" y="124.119402985"/>
      <point x="561.791044776" y="-20.0"/>
      <point x="420" y="-20" type="qcurve" smooth="yes"/>
      <point x="367.76119403" y="-20.0"/>
      <point x="273.298507463" y="0.597014925373"/>
      <point x="233" y="20" type="qcurve"/>
      <point x="86" y="-195" type="line"/>
      <point x="-47" y="-195" type="line"/>
      <point x="154" y="78" type="line"/>
      <point x="107.731343284" y="125.014925373"/>
      <point x="55.0" y="264.208955224"/>
      <point x="55" y="356" type="qcurve" smooth="yes"/>
      <point x="55" y="360" type="line" smooth="yes"/>
      <point x="55.0" y="409.253731343"/>
      <point x="72.5671641791" y="527.28358209"/>
      <point x="86" y="584" type="qcurve" smooth="yes"/>
      <point x="141.223880597" y="804.149253731"/>
      <point x="409.805970149" y="1094.0"/>
      <point x="621" y="1094" type="qcurve" smooth="yes"/>
      <point x="681.447761194" y="1094.0"/>
      <point x="774.462686567" y="1071.89552239"/>
      <point x="817" y="1051" type="qcurve"/>
    </contour>
    <contour>
      <point x="274" y="223" type="qcurve"/>
      <point x="729" y="915" type="line"/>
      <point x="702.880597015" y="932.164179104"/>
      <point x="644.059701493" y="950.0"/>
      <point x="606" y="950" type="qcurve" smooth="yes"/>
      <point x="499.28358209" y="950.0"/>
      <point x="331.029850746" y="745.149253731"/>
      <point x="287" y="575" type="qcurve" smooth="yes"/>
      <point x="268.343283582" y="507.835820896"/>
      <point x="252.0" y="398.746268657"/>
      <point x="252" y="348" type="qcurve" smooth="yes"/>
      <point x="252" y="344" type="line" smooth="yes"/>
      <point x="252.0" y="308.925373134"/>
      <point x="263.552238806" y="247.626865672"/>
    </contour>
  </outline>
</glyph>
<glyph name="sterling" format="1">
  <advance width="1206.272"/>
  <unicode hex="00A3"/>
  <outline>
    <contour>
      <point x="827" y="1497" type="qcurve" smooth="yes"/>
      <point x="1027.74626866" y="1497.0"/>
      <point x="1227.79104478" y="1335.82089552"/>
      <point x="1286" y="1200" type="qcurve"/>
      <point x="1090" y="1118" type="line"/>
      <point x="1042.23880597" y="1223.97014925"/>
      <point x="922.223880597" y="1327.0"/>
      <point x="817" y="1327" type="qcurve" smooth="yes"/>
      <point x="687.149253731" y="1327.0"/>
      <point x="555.0" y="1141.95522388"/>
      <point x="555" y="983" type="qcurve" smooth="yes"/>
      <point x="555" y="793" type="line"/>
      <point x="938" y="793" type="line"/>
      <point x="907" y="672" type="line"/>
      <point x="555" y="672" type="line"/>
      <point x="555.0" y="549.611940299"/>
      <point x="508.014925373" y="345.343283582"/>
      <point x="461" y="264" type="qcurve"/>
      <point x="516.223880597" y="216.985074627"/>
      <point x="625.820895522" y="168.0"/>
      <point x="690" y="168" type="qcurve" smooth="yes"/>
      <point x="774.328358209" y="168.0"/>
      <point x="900.313432836" y="267.626865672"/>
      <point x="963" y="393" type="qcurve"/>
      <point x="1108" y="338" type="line"/>
      <point x="1028.14925373" y="149.940298507"/>
      <point x="828.358208955" y="-12.0"/>
      <point x="700" y="-12" type="qcurve" smooth="yes"/>
      <point x="600.746268657" y="-12.0"/>
      <point x="441.820895522" y="66.8507462687"/>
      <point x="356" y="137" type="qcurve"/>
      <point x="284.358208955" y="74.3134328358"/>
      <point x="86.3731343284" y="-0.0597014925373"/>
      <point x="-39" y="-12" type="qcurve"/>
      <point x="2" y="152" type="line"/>
      <point x="171.402985075" y="191.552238806"/>
      <point x="342.0" y="418.820895522"/>
      <point x="342" y="633" type="qcurve" smooth="yes"/>
      <point x="342" y="672" type="line"/>
      <point x="106" y="672" type="line"/>
      <point x="137" y="793" type="line"/>
      <point x="342" y="793" type="line"/>
      <point x="342" y="967" type="line" smooth="yes"/>
      <point x="342.0" y="1211.02985075"/>
      <point x="590.432835821" y="1497.0"/>
    </contour>
  </outline>
</glyph>
<glyph name="yen" format="1">
  <advance width="1280.0"/>
  <unicode hex="00A5"/>
  <outline>
    <contour>
      <point x="1239" y="1475" type="line"/>
      <point x="1479" y="1475" type="line"/>
      <point x="942" y="805" type="line"/>
      <point x="1217" y="805" type="line"/>
      <point x="1186" y="684" type="line"/>
      <point x="846" y="684" type="line"/>
      <point x="760" y="575" type="line"/>
      <point x="721" y="422" type="line"/>
      <point x="1120" y="422" type="line"/>
      <point x="1090" y="301" type="line"/>
      <point x="690" y="301" type="line"/>
      <point x="616" y="0" type="line"/>
      <point x="395" y="0" type="line"/>
      <point x="471" y="301" type="line"/>
      <point x="72" y="301" type="line"/>
      <point x="102" y="422" type="line"/>
      <point x="502" y="422" type="line"/>
      <point x="539" y="571" type="line"/>
      <point x="504" y="684" type="line"/>
      <point x="166" y="684" type="line"/>
      <point x="199" y="805" type="line"/>
      <point x="469" y="805" type="line"/>
      <point x="268" y="1475" type="line"/>
      <point x="504" y="1475" type="line"/>
      <point x="692" y="756" type="line"/>
    </contour>
  </outline>
</glyph>
<glyph name="dieresis" format="1">
  <advance width="1024.0"/>
  <unicode hex="00A8"/>
  <outline>
    <contour>
      <point x="442" y="1430" type="line"/>
      <point x="637" y="1430" type="line"/>
      <point x="584" y="1212" type="line"/>
      <point x="387" y="1212" type="line"/>
    </contour>
    <contour>
      <point x="829" y="1430" type="line"/>
      <point x="1024" y="1430" type="line"/>
      <point x="971" y="1212" type="line"/>
      <point x="774" y="1212" type="line"/>
    </contour>
  </outline>
</glyph>
<glyph name="degree" format="1">
  <advance width="819.2"/>
  <unicode hex="00B0"/>
  <outline>
    <contour>
      <point x="520" y="1483" type="qcurve" smooth="yes"/>
      <point x="654.328358209" y="1483.0"/>
      <point x="834.0" y="1308.32835821"/>
      <point x="834" y="1174" type="qcurve" smooth="yes"/>
      <point x="834.0" y="1038.92537313"/>
      <point x="654.328358209" y="864.0"/>
      <point x="520" y="864" type="qcurve" smooth="yes"/>
      <point x="385.671641791" y="864.0"/>
      <point x="207.0" y="1038.92537313"/>
      <point x="207" y="1174" type="qcurve" smooth="yes"/>
      <point x="207.0" y="1308.32835821"/>
      <point x="385.671641791" y="1483.0"/>
    </contour>
    <contour>
      <point x="520" y="969" type="qcurve" smooth="yes"/>
      <point x="604.328358209" y="969.0"/>
      <point x="713.0" y="1085.19402985"/>
      <point x="713" y="1174" type="qcurve" smooth="yes"/>
      <point x="713.0" y="1260.56716418"/>
      <point x="604.328358209" y="1376.0"/>
      <point x="520" y="1376" type="qcurve" smooth="yes"/>
      <point x="434.925373134" y="1376.0"/>
      <point x="328.0" y="1260.56716418"/>
      <point x="328" y="1174" type="qcurve" smooth="yes"/>
      <point x="328.0" y="1085.19402985"/>
      <point x="434.925373134" y="969.0"/>
    </contour>
  </outline>
</glyph>
<glyph name="acute" format="1">
  <advance width="1024.0"/>
  <unicode hex="00B4"/>
  <outline>
    <contour>
      <point x="723" y="1522" type="line"/>
      <point x="991" y="1522" type="line"/>
      <point x="631" y="1212" type="line"/>
      <point x="481" y="1212" type="line"/>
    </contour>
  </outline>
</glyph>
<glyph name="ordmasculine" format="1">
  <advance width="798.72"/>
  <unicode hex="00BA"/>
  <outline>
    <contour>
      <point x="573" y="1489" type="qcurve" smooth="yes"/>
      <point x="690.910447761" y="1489.0"/>
      <point x="840.0" y="1356.82089552"/>
      <point x="840" y="1221" type="qcurve" smooth="yes"/>
      <point x="840.0" y="1052.34328358"/>
      <point x="645.119402985" y="745.0"/>
      <point x="469" y="745" type="qcurve" smooth="yes"/>
      <point x="351.089552239" y="745.0"/>
      <point x="203.0" y="875.940298507"/>
      <point x="203" y="1014" type="qcurve" smooth="yes"/>
      <point x="203.0" y="1181.91044776"/>
      <point x="397.626865672" y="1489.0"/>
    </contour>
    <contour>
      <point x="469" y="846" type="qcurve" smooth="yes"/>
      <point x="572.731343284" y="846.0"/>
      <point x="688.0" y="1116.58208955"/>
      <point x="688" y="1233" type="qcurve" smooth="yes"/>
      <point x="688.0" y="1312.10447761"/>
      <point x="625.23880597" y="1386.0"/>
      <point x="573" y="1386" type="qcurve" smooth="yes"/>
      <point x="469.268656716" y="1386.0"/>
      <point x="354.0" y="1116.91044776"/>
      <point x="354" y="999" type="qcurve" smooth="yes"/>
      <point x="354.0" y="919.895522388"/>
      <point x="416.76119403" y="846.0"/>
    </contour>
    <contour>
      <point x="125" y="608" type="line"/>
      <point x="709" y="608" type="line"/>
      <point x="686" y="514" type="line"/>
      <point x="102" y="514" type="line"/>
    </contour>
  </outline>
</glyph>
<glyph name="Ccedilla" format="1">
  <advance width="1208.32"/>
  <unicode hex="00C7"/>
  <outline>
    <contour>
      <point x="827" y="1499" type="qcurve" smooth="yes"/>
      <point x="1051.62686567" y="1499.0"/>
      <point x="1257.68656716" y="1237.64179104"/>
      <point x="1245" y="1016" type="qcurve"/>
      <point x="1018" y="973" type="line"/>
      <point x="1025.46268657" y="1143.89552239"/>
      <point x="925.417910448" y="1319.0"/>
      <point x="809" y="1319" type="qcurve" smooth="yes"/>
      <point x="666.462686567" y="1319.0"/>
      <point x="455.208955224" y="1020.1641791"/>
      <point x="397" y="803" type="qcurve" smooth="yes"/>
      <point x="369.388059701" y="703.746268657"/>
      <point x="344.0" y="537.149253731"/>
      <point x="344" y="467" type="qcurve" smooth="yes"/>
      <point x="344" y="461" type="line" smooth="yes"/>
      <point x="344.0" y="332.641791045"/>
      <point x="455.328358209" y="156.0"/>
      <point x="571" y="156" type="qcurve" smooth="yes"/>
      <point x="678.462686567" y="156.0"/>
      <point x="837.835820896" y="317.537313433"/>
      <point x="905" y="475" type="qcurve"/>
      <point x="1112" y="410" type="line"/>
      <point x="1017.2238806" y="197.313432836"/>
      <point x="753.029850746" y="-21.2686567164"/>
      <point x="559" y="-25" type="qcurve"/>
      <point x="477" y="-111" type="line"/>
      <point x="497.149253731" y="-105.776119403"/>
      <point x="542.104477612" y="-100.0"/>
      <point x="563" y="-100" type="qcurve" smooth="yes"/>
      <point x="634.641791045" y="-100.0"/>
      <point x="715.0" y="-156.76119403"/>
      <point x="715" y="-209" type="qcurve" smooth="yes"/>
      <point x="715.0" y="-297.805970149"/>
      <point x="515.462686567" y="-389.0"/>
      <point x="358" y="-389" type="qcurve" smooth="yes"/>
      <point x="313.970149254" y="-389.0"/>
      <point x="220.567164179" y="-383.47761194"/>
      <point x="184" y="-379" type="qcurve"/>
      <point x="201" y="-324" type="line"/>
      <point x="233.089552239" y="-326.985074627"/>
      <point x="300.388059701" y="-332.0"/>
      <point x="328" y="-332" type="qcurve" smooth="yes"/>
      <point x="443.671641791" y="-332.0"/>
      <point x="559.0" y="-283.044776119"/>
      <point x="559" y="-242" type="qcurve" smooth="yes"/>
      <point x="559.0" y="-217.373134328"/>
      <point x="519.059701493" y="-188.0"/>
      <point x="481" y="-188" type="qcurve" smooth="yes"/>
      <point x="454.880597015" y="-188.0"/>
      <point x="403.597014925" y="-198.552238806"/>
      <point x="373" y="-209" type="qcurve"/>
      <point x="324" y="-172" type="line"/>
      <point x="473" y="-18" type="line"/>
      <point x="303.597014925" y="2.89552238806"/>
      <point x="111.0" y="258.791044776"/>
      <point x="111" y="467" type="qcurve" smooth="yes"/>
      <point x="111" y="475" type="line" smooth="yes"/>
      <point x="111.0" y="537.686567164"/>
      <point x="128.582089552" y="687.373134328"/>
      <point x="145" y="762" type="qcurve" smooth="yes"/>
      <point x="217.388059701" y="1087.37313433"/>
      <point x="564.313432836" y="1499.0"/>
    </contour>
  </outline>
</glyph>
<glyph name="germandbls" format="1">
  <advance width="1200.128"/>
  <unicode hex="00DF"/>
  <outline>
    <contour>
      <point x="801" y="1554" type="qcurve" smooth="yes"/>
      <point x="974.880597015" y="1554.0"/>
      <point x="1182.0" y="1392.07462687"/>
      <point x="1182" y="1257" type="qcurve" smooth="yes"/>
      <point x="1182.0" y="1087.59701493"/>
      <point x="960.149253731" y="891.52238806"/>
      <point x="840" y="846" type="qcurve"/>
      <point x="836" y="831" type="line"/>
      <point x="953.164179104" y="782.492537313"/>
      <point x="1108.0" y="575.552238806"/>
      <point x="1108" y="436" type="qcurve" smooth="yes"/>
      <point x="1108.0" y="217.343283582"/>
      <point x="827.029850746" y="-16.0"/>
      <point x="633" y="-16" type="qcurve" smooth="yes"/>
      <point x="541.208955224" y="-16.0"/>
      <point x="406.23880597" y="23.4179104478"/>
      <point x="354" y="57" type="qcurve"/>
      <point x="420" y="195" type="line"/>
      <point x="462.537313433" y="167.388059701"/>
      <point x="551.791044776" y="133.0"/>
      <point x="610" y="133" type="qcurve" smooth="yes"/>
      <point x="729.402985075" y="133.0"/>
      <point x="889.0" y="299.701492537"/>
      <point x="889" y="440" type="qcurve" smooth="yes"/>
      <point x="889.0" y="562.388059701"/>
      <point x="733.955223881" y="741.910447761"/>
      <point x="575" y="774" type="qcurve"/>
      <point x="610" y="911" type="line"/>
      <point x="757.014925373" y="919.208955224"/>
      <point x="961.0" y="1103.62686567"/>
      <point x="961" y="1229" type="qcurve" smooth="yes"/>
      <point x="961.0" y="1312.58208955"/>
      <point x="858.805970149" y="1405.0"/>
      <point x="770" y="1405" type="qcurve" smooth="yes"/>
      <point x="666.268656716" y="1405.0"/>
      <point x="527.582089552" y="1277.8358209"/>
      <point x="494" y="1145" type="qcurve" smooth="yes"/>
      <point x="113" y="-385" type="line"/>
      <point x="-106" y="-385" type="line"/>
      <point x="274" y="1147" type="line" smooth="yes"/>
      <point x="327.731343284" y="1359.68656716"/>
      <point x="588.313432836" y="1554.0"/>
    </contour>
  </outline>
</glyph>
<glyph name="ae" format="1">
  <advance width="1568.768"/>
  <unicode hex="00E6"/>
  <outline>
    <contour>
      <point x="1212" y="1094" type="qcurve" smooth="yes"/>
      <point x="1385.13432836" y="1094.0"/>
      <point x="1526.0" y="885.029850746"/>
      <point x="1526" y="741" type="qcurve" smooth="yes"/>
      <point x="1526.0" y="685.029850746"/>
      <point x="1504.91044776" y="553.179104478"/>
      <point x="1487" y="489" type="qcurve"/>
      <point x="866" y="489" type="line"/>
      <point x="861.52238806" y="460.641791045"/>
      <point x="858.0" y="402.104477612"/>
      <point x="858" y="373" type="qcurve" smooth="yes"/>
      <point x="858" y="369" type="line" smooth="yes"/>
      <point x="858.0" y="254.074626866"/>
      <point x="962.731343284" y="135.0"/>
      <point x="1059" y="135" type="qcurve" smooth="yes"/>
      <point x="1130.64179104" y="135.0"/>
      <point x="1276.65671642" y="190.746268657"/>
      <point x="1358" y="240" type="qcurve"/>
      <point x="1395" y="98" type="line"/>
      <point x="1301.71641791" y="43.5223880597"/>
      <point x="1130.68656716" y="-18.0"/>
      <point x="1018" y="-18" type="qcurve" smooth="yes"/>
      <point x="894.119402985" y="-18.0"/>
      <point x="724.059701493" y="87.223880597"/>
      <point x="686" y="182" type="qcurve"/>
      <point x="674" y="182" type="line"/>
      <point x="545.641791045" y="72.2985074627"/>
      <point x="350.208955224" y="-14.0"/>
      <point x="242" y="-14" type="qcurve" smooth="yes"/>
      <point x="137.52238806" y="-14.0"/>
      <point x="2.0" y="104.791044776"/>
      <point x="2" y="213" type="qcurve" smooth="yes"/>
      <point x="2.0" y="389.119402985"/>
      <point x="332.567164179" y="629.029850746"/>
      <point x="696" y="635" type="qcurve"/>
      <point x="721" y="729" type="line" smooth="yes"/>
      <point x="726.970149254" y="750.641791045"/>
      <point x="731.0" y="791.835820896"/>
      <point x="731" y="809" type="qcurve" smooth="yes"/>
      <point x="731.0" y="870.194029851"/>
      <point x="654.850746269" y="932.0"/>
      <point x="575" y="932" type="qcurve" smooth="yes"/>
      <point x="501.865671642" y="932.0"/>
      <point x="368.23880597" y="894.537313433"/>
      <point x="266" y="852" type="qcurve"/>
      <point x="233" y="989" type="line"/>
      <point x="340.462686567" y="1036.76119403"/>
      <point x="519.507462687" y="1085.0"/>
      <point x="621" y="1085" type="qcurve" smooth="yes"/>
      <point x="741.149253731" y="1085.0"/>
      <point x="858.567164179" y="999.805970149"/>
      <point x="872" y="911" type="qcurve"/>
      <point x="885" y="911" type="line"/>
      <point x="950.671641791" y="993.835820896"/>
      <point x="1115.73134328" y="1094.0"/>
    </contour>
    <contour>
      <point x="653" y="360" type="line" smooth="yes"/>
      <point x="653.0" y="403.28358209"/>
      <point x="665.552238806" y="496.731343284"/>
      <point x="676" y="543" type="qcurve"/>
      <point x="416.298507463" y="538.52238806"/>
      <point x="213.0" y="363.731343284"/>
      <point x="213" y="260" type="qcurve" smooth="yes"/>
      <point x="213.0" y="192.835820896"/>
      <point x="290.835820896" y="121.0"/>
      <point x="358" y="121" type="qcurve" smooth="yes"/>
      <point x="414.71641791" y="121.0"/>
      <point x="553.268656716" y="185.23880597"/>
      <point x="657" y="283" type="qcurve"/>
      <point x="655.507462687" y="299.417910448"/>
      <point x="653.0" y="336.597014925"/>
      <point x="653" y="356" type="qcurve" smooth="yes"/>
    </contour>
    <contour>
      <point x="1307" y="592" type="line"/>
      <point x="1317.44776119" y="637.52238806"/>
      <point x="1327.0" y="718.417910448"/>
      <point x="1327" y="752" type="qcurve" smooth="yes"/>
      <point x="1327.0" y="838.567164179"/>
      <point x="1269.10447761" y="961.0"/>
      <point x="1190" y="961" type="qcurve" smooth="yes"/>
      <point x="1095.2238806" y="961.0"/>
      <point x="926.552238806" y="747.970149254"/>
      <point x="887" y="592" type="qcurve"/>
    </contour>
  </outline>
</glyph>
<glyph name="ccedilla" format="1">
  <advance width="946.176"/>
  <unicode hex="00E7"/>
  <outline>
    <contour>
      <point x="621" y="1094" type="qcurve" smooth="yes"/>
      <point x="788.910447761" y="1094.0"/>
      <point x="940.029850746" y="913.014925373"/>
      <point x="946" y="766" type="qcurve"/>
      <point x="741" y="735" type="line"/>
      <point x="736.52238806" y="837.23880597"/>
      <point x="676.119402985" y="948.0"/>
      <point x="600" y="948" type="qcurve" smooth="yes"/>
      <point x="496.268656716" y="948.0"/>
      <point x="349.776119403" y="738.671641791"/>
      <point x="305" y="573" type="qcurve" smooth="yes"/>
      <point x="287.089552239" y="508.820895522"/>
      <point x="270.0" y="391.731343284"/>
      <point x="270" y="338" type="qcurve" smooth="yes"/>
      <point x="270" y="334" type="line" smooth="yes"/>
      <point x="270.0" y="230.268656716"/>
      <point x="360.358208955" y="125.0"/>
      <point x="432" y="125" type="qcurve" smooth="yes"/>
      <point x="494.686567164" y="125.0"/>
      <point x="603.029850746" y="217.208955224"/>
      <point x="659" y="309" type="qcurve"/>
      <point x="840" y="248" type="line"/>
      <point x="764.626865672" y="124.119402985"/>
      <point x="562.298507463" y="-18.5074626866"/>
      <point x="422" y="-20" type="qcurve"/>
      <point x="336" y="-111" type="line"/>
      <point x="357.641791045" y="-105.776119403"/>
      <point x="400.358208955" y="-100.0"/>
      <point x="422" y="-100" type="qcurve" smooth="yes"/>
      <point x="493.641791045" y="-100.0"/>
      <point x="573.0" y="-156.76119403"/>
      <point x="573" y="-209" type="qcurve" smooth="yes"/>
      <point x="573.0" y="-297.805970149"/>
      <point x="374.462686567" y="-389.0"/>
      <point x="217" y="-389" type="qcurve" smooth="yes"/>
      <point x="174.462686567" y="-389.0"/>
      <point x="79.5671641791" y="-383.47761194"/>
      <point x="43" y="-379" type="qcurve"/>
      <point x="59" y="-324" type="line"/>
      <point x="91.0895522388" y="-326.985074627"/>
      <point x="159.134328358" y="-332.0"/>
      <point x="186" y="-332" type="qcurve" smooth="yes"/>
      <point x="302.417910448" y="-332.0"/>
      <point x="420.0" y="-283.044776119"/>
      <point x="420" y="-242" type="qcurve" smooth="yes"/>
      <point x="420.0" y="-217.373134328"/>
      <point x="378.567164179" y="-188.0"/>
      <point x="342" y="-188" type="qcurve" smooth="yes"/>
      <point x="314.388059701" y="-188.0"/>
      <point x="263.089552239" y="-198.552238806"/>
      <point x="231" y="-209" type="qcurve"/>
      <point x="184" y="-172" type="line"/>
      <point x="340" y="-14" type="line"/>
      <point x="211.641791045" y="5.40298507463"/>
      <point x="55.0" y="194.059701493"/>
      <point x="55" y="356" type="qcurve" smooth="yes"/>
      <point x="55" y="360" type="line" smooth="yes"/>
      <point x="55.0" y="409.253731343"/>
      <point x="72.5671641791" y="527.28358209"/>
      <point x="86" y="584" type="qcurve" smooth="yes"/>
      <point x="141.223880597" y="804.149253731"/>
      <point x="408.313432836" y="1094.0"/>
    </contour>
  </outline>
</glyph>
<glyph name="eth" format="1">
  <advance width="1044.48"/>
  <unicode hex="00F0"/>
  <outline>
    <contour>
      <point x="870" y="1448" type="qcurve"/>
      <point x="1133" y="1561" type="line"/>
      <point x="1108" y="1462" type="line"/>
      <point x="915" y="1376" type="line"/>
      <point x="965.746268657" y="1282.71641791"/>
      <point x="1020.0" y="1070.92537313"/>
      <point x="1020" y="956" type="qcurve" smooth="yes"/>
      <point x="1020" y="948" type="line" smooth="yes"/>
      <point x="1020.0" y="857.701492537"/>
      <point x="989.074626866" y="658.059701493"/>
      <point x="954" y="520" type="qcurve" smooth="yes"/>
      <point x="886.835820896" y="249.850746269"/>
      <point x="603.552238806" y="-20.0"/>
      <point x="414" y="-20" type="qcurve" smooth="yes"/>
      <point x="250.567164179" y="-20.0"/>
      <point x="55.0" y="171.671641791"/>
      <point x="55" y="356" type="qcurve" smooth="yes"/>
      <point x="55" y="360" type="line" smooth="yes"/>
      <point x="55.0" y="407.76119403"/>
      <point x="70.5671641791" y="522.776119403"/>
      <point x="84" y="578" type="qcurve" smooth="yes"/>
      <point x="137.731343284" y="798.895522388"/>
      <point x="394.641791045" y="1085.0"/>
      <point x="573" y="1085" type="qcurve" smooth="yes"/>
      <point x="683.447761194" y="1085.0"/>
      <point x="811.880597015" y="956.23880597"/>
      <point x="838" y="854" type="qcurve"/>
      <point x="848" y="854" type="line"/>
      <point x="859.940298507" y="988.328358209"/>
      <point x="807.970149254" y="1217.74626866"/>
      <point x="752" y="1317" type="qcurve"/>
      <point x="477" y="1196" type="line"/>
      <point x="504" y="1294" type="line"/>
      <point x="700" y="1384" type="line"/>
      <point x="677.611940299" y="1416.08955224"/>
      <point x="624.597014925" y="1475.3880597"/>
      <point x="594" y="1503" type="qcurve"/>
      <point x="788" y="1561" type="line"/>
      <point x="809.641791045" y="1533.3880597"/>
      <point x="852.089552239" y="1477.10447761"/>
    </contour>
    <contour>
      <point x="725" y="502" type="qcurve" smooth="yes"/>
      <point x="743.656716418" y="573.641791045"/>
      <point x="762.0" y="690.492537313"/>
      <point x="762" y="739" type="qcurve" smooth="yes"/>
      <point x="762" y="743" type="line" smooth="yes"/>
      <point x="762.0" y="853.447761194"/>
      <point x="677.134328358" y="956.0"/>
      <point x="604" y="956" type="qcurve" smooth="yes"/>
      <point x="497.28358209" y="956.0"/>
      <point x="346.044776119" y="738.164179104"/>
      <point x="305" y="571" type="qcurve" smooth="yes"/>
      <point x="287.089552239" y="499.358208955"/>
      <point x="268.0" y="383.014925373"/>
      <point x="268" y="336" type="qcurve" smooth="yes"/>
      <point x="268" y="332" type="line" smooth="yes"/>
      <point x="268.0" y="221.552238806"/>
      <point x="352.865671642" y="117.0"/>
      <point x="426" y="117" type="qcurve" smooth="yes"/>
      <point x="532.71641791" y="117.0"/>
      <point x="683.955223881" y="337.074626866"/>
    </contour>
  </outline>
</glyph>
<glyph name="divide" format="1">
  <advance width="1228.8"/>
  <unicode hex="00F7"/>
  <outline>
    <contour>
      <point x="662" y="422" type="qcurve" smooth="yes"/>
      <point x="720.955223881" y="422.0"/>
      <point x="799.0" y="345.208955224"/>
      <point x="799" y="287" type="qcurve" smooth="yes"/>
      <point x="799.0" y="228.791044776"/>
      <point x="720.955223881" y="150.0"/>
      <point x="662" y="150" type="qcurve" smooth="yes"/>
      <point x="603.791044776" y="150.0"/>
      <point x="526.0" y="228.791044776"/>
      <point x="526" y="287" type="qcurve" smooth="yes"/>
      <point x="526.0" y="345.208955224"/>
      <point x="603.791044776" y="422.0"/>
    </contour>
    <contour>
      <point x="662" y="1305" type="qcurve" smooth="yes"/>
      <point x="720.955223881" y="1305.0"/>
      <point x="799.0" y="1225.20895522"/>
      <point x="799" y="1167" type="qcurve" smooth="yes"/>
      <point x="799.0" y="1109.53731343"/>
      <point x="720.955223881" y="1032.0"/>
      <point x="662" y="1032" type="qcurve" smooth="yes"/>
      <point x="603.791044776" y="1032.0"/>
      <point x="526.0" y="1109.53731343"/>
      <point x="526" y="1167" type="qcurve" smooth="yes"/>
      <point x="526.0" y="1225.20895522"/>
      <point x="603.791044776" y="1305.0"/>
    </contour>
    <contour>
      <point x="1192" y="819" type="line"/>
      <point x="1192" y="635" type="line"/>
      <point x="133" y="635" type="line"/>
      <point x="133" y="819" type="line"/>
    </contour>
  </outline>
</glyph>
<glyph name="OE" format="1">
  <advance width="1828.864"/>
  <unicode hex="0152"/>
  <outline>
    <contour>
      <point x="954" y="1475" type="qcurve" smooth="yes"/>
      <point x="1968" y="1475" type="line"/>
      <point x="1923" y="1292" type="line"/>
      <point x="1290" y="1292" type="line"/>
      <point x="1180" y="854" type="line"/>
      <point x="1675" y="854" type="line"/>
      <point x="1632" y="680" type="line"/>
      <point x="1137" y="680" type="line"/>
      <point x="1014" y="182" type="line"/>
      <point x="1671" y="182" type="line"/>
      <point x="1626" y="0" type="line"/>
      <point x="657" y="0" type="line" smooth="yes"/>
      <point x="411.47761194" y="0.0"/>
      <point x="113.0" y="249.791044776"/>
      <point x="113" y="508" type="qcurve" smooth="yes"/>
      <point x="113" y="514" type="line" smooth="yes"/>
      <point x="113.0" y="576.686567164"/>
      <point x="126.074626866" y="695.343283582"/>
      <point x="141" y="764" type="qcurve" smooth="yes"/>
      <point x="222.343283582" y="1114.0"/>
      <point x="647.28358209" y="1475.0"/>
    </contour>
    <contour>
      <point x="786" y="180" type="line"/>
      <point x="1063" y="1294" type="line"/>
      <point x="940" y="1294" type="line" smooth="yes"/>
      <point x="745.970149254" y="1294.0"/>
      <point x="454.164179104" y="1034.71641791"/>
      <point x="387" y="778" type="qcurve" smooth="yes"/>
      <point x="372.074626866" y="719.791044776"/>
      <point x="354.0" y="587.701492537"/>
      <point x="354" y="528" type="qcurve" smooth="yes"/>
      <point x="354" y="520" type="line" smooth="yes"/>
      <point x="354.0" y="353.582089552"/>
      <point x="536.507462687" y="180.0"/>
      <point x="688" y="180" type="qcurve" smooth="yes"/>
    </contour>
  </outline>
</glyph>
<glyph name="oe" format="1">
  <advance width="1636.352"/>
  <unicode hex="0153"/>
  <outline>
    <contour>
      <point x="1284" y="1094" type="qcurve" smooth="yes"/>
      <point x="1450.41791045" y="1094.0"/>
      <point x="1593.0" y="885.029850746"/>
      <point x="1593" y="741" type="qcurve" smooth="yes"/>
      <point x="1593.0" y="685.029850746"/>
      <point x="1572.65671642" y="553.179104478"/>
      <point x="1554" y="489" type="qcurve"/>
      <point x="936" y="489" type="line"/>
      <point x="931.52238806" y="460.641791045"/>
      <point x="928.0" y="402.104477612"/>
      <point x="928" y="373" type="qcurve" smooth="yes"/>
      <point x="928" y="369" type="line" smooth="yes"/>
      <point x="928.0" y="252.582089552"/>
      <point x="1033.50746269" y="135.0"/>
      <point x="1135" y="135" type="qcurve" smooth="yes"/>
      <point x="1199.17910448" y="135.0"/>
      <point x="1344.91044776" y="190.746268657"/>
      <point x="1427" y="240" type="qcurve"/>
      <point x="1462" y="98" type="line"/>
      <point x="1368.71641791" y="43.5223880597"/>
      <point x="1203.73134328" y="-18.0"/>
      <point x="1100" y="-18" type="qcurve" smooth="yes"/>
      <point x="973.134328358" y="-18.0"/>
      <point x="820.402985075" y="116.149253731"/>
      <point x="801" y="246" type="qcurve"/>
      <point x="784" y="246" type="line"/>
      <point x="719.820895522" y="129.582089552"/>
      <point x="521.835820896" y="-20.0"/>
      <point x="389" y="-20" type="qcurve" smooth="yes"/>
      <point x="250.194029851" y="-20.0"/>
      <point x="55.0" y="171.671641791"/>
      <point x="55" y="356" type="qcurve" smooth="yes"/>
      <point x="55" y="360" type="line" smooth="yes"/>
      <point x="55.0" y="407.76119403"/>
      <point x="70.5671641791" y="522.776119403"/>
      <point x="84" y="578" type="qcurve" smooth="yes"/>
      <point x="139.223880597" y="802.626865672"/>
      <point x="407.940298507" y="1094.0"/>
      <point x="596" y="1094" type="qcurve" smooth="yes"/>
      <point x="719.880597015" y="1094.0"/>
      <point x="871.358208955" y="952.880597015"/>
      <point x="893" y="829" type="qcurve"/>
      <point x="905" y="829" type="line"/>
      <point x="972.164179104" y="949.895522388"/>
      <point x="1160.11940299" y="1094.0"/>
    </contour>
    <contour>
      <point x="725" y="502" type="qcurve" smooth="yes"/>
      <point x="743.656716418" y="573.641791045"/>
      <point x="760.0" y="690.492537313"/>
      <point x="760" y="739" type="qcurve" smooth="yes"/>
      <point x="760" y="743" type="line" smooth="yes"/>
      <point x="760.0" y="848.970149254"/>
      <point x="674.119402985" y="956.0"/>
      <point x="598" y="956" type="qcurve" smooth="yes"/>
      <point x="497.253731343" y="956.0"/>
      <point x="347.537313433" y="739.656716418"/>
      <point x="305" y="571" type="qcurve" smooth="yes"/>
      <point x="287.089552239" y="499.358208955"/>
      <point x="268.0" y="383.014925373"/>
      <point x="268" y="336" type="qcurve" smooth="yes"/>
      <point x="268" y="332" type="line" smooth="yes"/>
      <point x="268.0" y="221.552238806"/>
      <point x="353.820895522" y="117.0"/>
      <point x="418" y="117" type="qcurve" smooth="yes"/>
      <point x="524.71641791" y="117.0"/>
      <point x="682.462686567" y="337.074626866"/>
    </contour>
    <contour>
      <point x="1374" y="592" type="line"/>
      <point x="1385.19402985" y="637.52238806"/>
      <point x="1397.0" y="718.417910448"/>
      <point x="1397" y="752" type="qcurve" smooth="yes"/>
      <point x="1397.0" y="838.567164179"/>
      <point x="1334.34328358" y="961.0"/>
      <point x="1253" y="961" type="qcurve" smooth="yes"/>
      <point x="1161.20895522" y="961.0"/>
      <point x="996.298507463" y="747.970149254"/>
      <point x="956" y="592" type="qcurve"/>
    </contour>
  </outline>
</glyph>
<glyph name="florin" format="1">
  <advance width="903.168"/>
  <unicode hex="0192"/>
  <outline>
    <contour>
      <point x="786" y="1487" type="qcurve" smooth="yes"/>
      <point x="861.373134328" y="1487.0"/>
      <point x="978.0" y="1462.89552239"/>
      <point x="1028" y="1442" type="qcurve"/>
      <point x="989" y="1284" type="line"/>
      <point x="952.432835821" y="1304.14925373"/>
      <point x="872.731343284" y="1333.0"/>
      <point x="819" y="1333" type="qcurve" smooth="yes"/>
      <point x="754.820895522" y="1333.0"/>
      <point x="678.641791045" y="1255.32835821"/>
      <point x="657" y="1171" type="qcurve" smooth="yes"/>
      <point x="602" y="948" type="line"/>
      <point x="858" y="948" type="line"/>
      <point x="819" y="795" type="line"/>
      <point x="565" y="795" type="line"/>
      <point x="336" y="-127" type="line" smooth="yes"/>
      <point x="299.432835821" y="-277.0"/>
      <point x="124.388059701" y="-389.0"/>
      <point x="2" y="-389" type="qcurve" smooth="yes"/>
      <point x="-54.7164179104" y="-389.0"/>
      <point x="-146.447761194" y="-371.671641791"/>
      <point x="-186" y="-356" type="qcurve"/>
      <point x="-152" y="-215" type="line"/>
      <point x="-122.895522388" y="-226.940298507"/>
      <point x="-67.5970149254" y="-242.0"/>
      <point x="-37" y="-242" type="qcurve" smooth="yes"/>
      <point x="25.6865671642" y="-242.0"/>
      <point x="102.343283582" y="-177.373134328"/>
      <point x="121" y="-102" type="qcurve" smooth="yes"/>
      <point x="344" y="795" type="line"/>
      <point x="141" y="795" type="line"/>
      <point x="178" y="948" type="line"/>
      <point x="383" y="948" type="line"/>
      <point x="442" y="1192" type="line" smooth="yes"/>
      <point x="480.805970149" y="1347.97014925"/>
      <point x="651.671641791" y="1487.0"/>
    </contour>
  </outline>
</glyph>
<glyph name="caron" format="1">
  <advance width="1024.0"/>
  <unicode hex="02C7"/>
  <outline>
    <contour>
      <point x="969" y="1544" type="line"/>
      <point x="1087" y="1544" type="line"/>
      <point x="762" y="1212" type="line"/>
      <point x="588" y="1212" type="line"/>
      <point x="428" y="1544" type="line"/>
      <point x="530" y="1544" type="line"/>
      <point x="702" y="1350" type="line"/>
    </contour>
  </outline>
</glyph>
<glyph name="ogonek" format="1">
  <advance width="1024.0"/>
  <unicode hex="02DB"/>
  <outline>
    <contour>
      <point x="555" y="-256" type="qcurve"/>
      <point x="569" y="-319" type="line"/>
      <point x="498.850746269" y="-354.820895522"/>
      <point x="359.686567164" y="-389.0"/>
      <point x="297" y="-389" type="qcurve" smooth="yes"/>
      <point x="203.71641791" y="-389.0"/>
      <point x="102.0" y="-319.194029851"/>
      <point x="102" y="-258" type="qcurve" smooth="yes"/>
      <point x="102.0" y="-196.805970149"/>
      <point x="226.656716418" y="-62.6865671642"/>
      <point x="358" y="0" type="qcurve"/>
      <point x="469" y="0" type="line"/>
      <point x="357.059701493" y="-68.6567164179"/>
      <point x="268.0" y="-181.447761194"/>
      <point x="268" y="-221" type="qcurve" smooth="yes"/>
      <point x="268.0" y="-254.582089552"/>
      <point x="323.23880597" y="-295.0"/>
      <point x="371" y="-295" type="qcurve" smooth="yes"/>
      <point x="415.029850746" y="-295.0"/>
      <point x="499.776119403" y="-276.149253731"/>
    </contour>
  </outline>
</glyph>
<glyph name="tilde" format="1">
  <advance width="1024.0"/>
  <unicode hex="02DC"/>
  <outline>
    <contour>
      <point x="967" y="1475" type="qcurve"/>
      <point x="1077" y="1475" type="line"/>
      <point x="1052.37313433" y="1339.92537313"/>
      <point x="939.76119403" y="1212.0"/>
      <point x="842" y="1212" type="qcurve" smooth="yes"/>
      <point x="745.731343284" y="1212.0"/>
      <point x="620.701492537" y="1327.0"/>
      <point x="561" y="1327" type="qcurve" smooth="yes"/>
      <point x="521.447761194" y="1327.0"/>
      <point x="471.925373134" y="1272.97014925"/>
      <point x="457" y="1217" type="qcurve"/>
      <point x="348" y="1217" type="line"/>
      <point x="372.626865672" y="1349.8358209"/>
      <point x="485.731343284" y="1479.0"/>
      <point x="582" y="1479" type="qcurve" smooth="yes"/>
      <point x="678.268656716" y="1479.0"/>
      <point x="804.298507463" y="1364.0"/>
      <point x="864" y="1364" type="qcurve" smooth="yes"/>
      <point x="904.298507463" y="1364.0"/>
      <point x="951.328358209" y="1416.79104478"/>
    </contour>
  </outline>
</glyph>
<glyph name="quotedblbase" format="1">
  <advance width="790.528"/>
  <unicode hex="201E"/>
  <outline>
    <contour>
      <point x="55" y="266" type="line"/>
      <point x="305" y="266" type="line"/>
      <point x="0" y="-240" type="line"/>
      <point x="-133" y="-240" type="line"/>
    </contour>
    <contour>
      <point x="420" y="266" type="line"/>
      <point x="670" y="266" type="line"/>
      <point x="365" y="-240" type="line"/>
      <point x="231" y="-240" type="line"/>
    </contour>
  </outline>
</glyph>
<glyph name="Euro" format="1">
  <advance width="1210.368"/>
  <unicode hex="20AC"/>
  <outline>
    <contour>
      <point x="1087" y="307" type="line"/>
      <point x="980.28358209" y="146.552238806"/>
      <point x="723.447761194" y="-25.0"/>
      <point x="563" y="-25" type="qcurve" smooth="yes"/>
      <point x="345.835820896" y="-25.0"/>
      <point x="111.0" y="237.895522388"/>
      <point x="111" y="467" type="qcurve" smooth="yes"/>
      <point x="111" y="475" type="line" smooth="yes"/>
      <point x="111.0" y="540.671641791"/>
      <point x="128.074626866" y="692.358208955"/>
      <point x="143" y="764" type="qcurve" smooth="yes"/>
      <point x="215.388059701" y="1081.91044776"/>
      <point x="561.328358209" y="1499.0"/>
      <point x="827" y="1499" type="qcurve" smooth="yes"/>
      <point x="1023.26865672" y="1499.0"/>
      <point x="1230.92537313" y="1297.58208955"/>
      <point x="1266" y="1114" type="qcurve"/>
      <point x="1085" y="1016" type="line"/>
      <point x="1061.11940299" y="1170.47761194"/>
      <point x="935.895522388" y="1331.0"/>
      <point x="815" y="1331" type="qcurve" smooth="yes"/>
      <point x="683.656716418" y="1331.0"/>
      <point x="479.701492537" y="1107.40298507"/>
      <point x="420" y="938" type="qcurve"/>
      <point x="864" y="938" type="line"/>
      <point x="836" y="825" type="line"/>
      <point x="385" y="825" type="line"/>
      <point x="371.567164179" y="773.507462687"/>
      <point x="349.970149254" y="676.014925373"/>
      <point x="344" y="629" type="qcurve"/>
      <point x="786" y="629" type="line"/>
      <point x="760" y="516" type="line"/>
      <point x="332" y="516" type="line"/>
      <point x="332" y="467" type="line" smooth="yes"/>
      <point x="332.0" y="331.179104478"/>
      <point x="454.656716418" y="141.0"/>
      <point x="586" y="141" type="qcurve" smooth="yes"/>
      <point x="697.194029851" y="141.0"/>
      <point x="878.194029851" y="290.179104478"/>
      <point x="967" y="426" type="qcurve"/>
    </contour>
  </outline>
</glyph>
<glyph name="apple" format="1">
  <advance width="1024.0"/>
  <unicode hex="F8FF"/>
  <outline>
    <contour>
      <point x="1077" y="1266" type="line"/>
      <point x="1096" y="1063" type="line"/>
      <point x="707" y="1030" type="line"/>
      <point x="926" y="725" type="line"/>
      <point x="924" y="715" type="line"/>
      <point x="557" y="438" type="line"/>
      <point x="918" y="360" type="line"/>
      <point x="799" y="160" type="line"/>
      <point x="510" y="365" type="line"/>
      <point x="483" y="0" type="line"/>
      <point x="264" y="0" type="line"/>
      <point x="428" y="367" type="line"/>
      <point x="45" y="209" type="line"/>
      <point x="29" y="412" type="line"/>
      <point x="418" y="444" type="line"/>
      <point x="199" y="750" type="line"/>
      <point x="199" y="760" type="line"/>
      <point x="565" y="1036" type="line"/>
      <point x="207" y="1114" type="line"/>
      <point x="326" y="1315" type="line"/>
      <point x="614" y="1110" type="line"/>
      <point x="639" y="1475" type="line"/>
      <point x="858" y="1475" type="line"/>
      <point x="694" y="1108" type="line"/>
    </contour>
    <contour>
      <point x="494" y="467" type="line"/>
      <point x="727" y="725" type="line"/>
      <point x="629" y="1008" type="line"/>
      <point x="397" y="750" type="line"/>
    </contour>
  </outline>
</glyph>
<glyph name="fl" format="1">
  <advance width="1220.608"/>
  <unicode hex="FB02"/>
  <outline>
    <contour>
      <point x="778" y="1554" type="qcurve" smooth="yes"/>
      <point x="840.686567164" y="1554.0"/>
      <point x="945.447761194" y="1534.92537313"/>
      <point x="985" y="1520" type="qcurve"/>
      <point x="946" y="1366" type="line"/>
      <point x="916.895522388" y="1379.43283582"/>
      <point x="845.507462687" y="1403.0"/>
      <point x="797" y="1403" type="qcurve" smooth="yes"/>
      <point x="731.328358209" y="1403.0"/>
      <point x="643.388059701" y="1327.80597015"/>
      <point x="621" y="1239" type="qcurve" smooth="yes"/>
      <point x="578" y="1067" type="line"/>
      <point x="840" y="1067" type="line"/>
      <point x="801" y="915" type="line"/>
      <point x="541" y="915" type="line"/>
      <point x="219" y="-385" type="line"/>
      <point x="2" y="-385" type="line"/>
      <point x="326" y="915" type="line"/>
      <point x="123" y="915" type="line"/>
      <point x="160" y="1067" type="line"/>
      <point x="362" y="1067" type="line"/>
      <point x="412" y="1262" type="line" smooth="yes"/>
      <point x="451.552238806" y="1419.46268657"/>
      <point x="626.507462687" y="1554.0"/>
    </contour>
    <contour>
      <point x="1104" y="1507" type="line"/>
      <point x="1335" y="1554" type="line"/>
      <point x="948" y="0" type="line"/>
      <point x="729" y="0" type="line"/>
    </contour>
  </outline>
</glyph>
<glyph name="a.salt" format="1">
  <advance width="1026.048"/>
  <outline>
    <contour>
      <point x="637" y="1085" type="qcurve" smooth="yes"/>
      <point x="794.462686567" y="1085.0"/>
      <point x="946.0" y="966.447761194"/>
      <point x="946" y="856" type="qcurve" smooth="yes"/>
      <point x="946.0" y="826.895522388"/>
      <point x="938.955223881" y="761.059701493"/>
      <point x="930" y="723" type="qcurve" smooth="yes"/>
      <point x="803" y="219" type="line" smooth="yes"/>
      <point x="800.014925373" y="205.567164179"/>
      <point x="795.0" y="171.940298507"/>
      <point x="795" y="160" type="qcurve" smooth="yes"/>
      <point x="795.0" y="127.910447761"/>
      <point x="834.223880597" y="85.9701492537"/>
      <point x="879" y="80" type="qcurve"/>
      <point x="854" y="-10" type="line"/>
      <point x="718.179104478" y="-5.5223880597"/>
      <point x="596.0" y="87.1343283582"/>
      <point x="596" y="164" type="qcurve"/>
      <point x="582" y="164" type="line"/>
      <point x="480.507462687" y="72.2089552239"/>
      <point x="326.059701493" y="-14.0"/>
      <point x="238" y="-14" type="qcurve" smooth="yes"/>
      <point x="133.52238806" y="-14.0"/>
      <point x="2.0" y="103.298507463"/>
      <point x="2" y="213" type="qcurve" smooth="yes"/>
      <point x="2.0" y="390.611940299"/>
      <point x="332.089552239" y="629.029850746"/>
      <point x="700" y="635" type="qcurve"/>
      <point x="725" y="729" type="line" smooth="yes"/>
      <point x="730.970149254" y="750.641791045"/>
      <point x="735.0" y="791.835820896"/>
      <point x="735" y="809" type="qcurve" smooth="yes"/>
      <point x="735.0" y="870.194029851"/>
      <point x="659.104477612" y="932.0"/>
      <point x="580" y="932" type="qcurve" smooth="yes"/>
      <point x="506.119402985" y="932.0"/>
      <point x="368.23880597" y="894.537313433"/>
      <point x="266" y="852" type="qcurve"/>
      <point x="233" y="989" type="line"/>
      <point x="340.462686567" y="1036.76119403"/>
      <point x="531.776119403" y="1085.0"/>
    </contour>
    <contour>
      <point x="610" y="264" type="qcurve"/>
      <point x="680" y="543" type="line"/>
      <point x="417.313432836" y="538.52238806"/>
      <point x="213.0" y="363.731343284"/>
      <point x="213" y="260" type="qcurve" smooth="yes"/>
      <point x="213.0" y="192.835820896"/>
      <point x="290.835820896" y="121.0"/>
      <point x="358" y="121" type="qcurve" smooth="yes"/>
      <point x="411.731343284" y="121.0"/>
      <point x="533.880597015" y="190.865671642"/>
    </contour>
  </outline>
</glyph>
<glyph name="registered" format="1">
  <advance width="1064.96"/>
  <outline>
    <contour>
      <point x="739" y="1004" type="qcurve"/>
      <point x="879" y="780" type="line"/>
      <point x="764" y="780" type="line"/>
      <point x="635" y="991" type="line"/>
      <point x="590" y="991" type="line"/>
      <point x="590" y="780" type="line"/>
      <point x="485" y="780" type="line"/>
      <point x="485" y="1298" type="line"/>
      <point x="668" y="1298" type="line" smooth="yes"/>
      <point x="751.582089552" y="1298.0"/>
      <point x="852.0" y="1221.11940299"/>
      <point x="852" y="1145" type="qcurve" smooth="yes"/>
      <point x="852.0" y="1089.7761194"/>
      <point x="791.23880597" y="1017.43283582"/>
    </contour>
    <contour>
      <point x="655" y="1489" type="qcurve" smooth="yes"/>
      <point x="849.029850746" y="1489.0"/>
      <point x="1112.0" y="1226.02985075"/>
      <point x="1112" y="1032" type="qcurve" smooth="yes"/>
      <point x="1112.0" y="837.970149254"/>
      <point x="847.029850746" y="575.0"/>
      <point x="653" y="575" type="qcurve" smooth="yes"/>
      <point x="458.970149254" y="575.0"/>
      <point x="199.0" y="836.47761194"/>
      <point x="199" y="1032" type="qcurve" smooth="yes"/>
      <point x="199.0" y="1224.53731343"/>
      <point x="460.970149254" y="1489.0"/>
    </contour>
    <contour>
      <point x="655" y="623" type="qcurve" smooth="yes"/>
      <point x="829.626865672" y="623.0"/>
      <point x="1057.0" y="858.119402985"/>
      <point x="1057" y="1032" type="qcurve" smooth="yes"/>
      <point x="1057.0" y="1205.13432836"/>
      <point x="827.626865672" y="1440.0"/>
      <point x="653" y="1440" type="qcurve" smooth="yes"/>
      <point x="479.119402985" y="1440.0"/>
      <point x="252.0" y="1206.62686567"/>
      <point x="252" y="1032" type="qcurve" smooth="yes"/>
      <point x="252.0" y="858.119402985"/>
      <point x="481.119402985" y="623.0"/>
    </contour>
    <contour>
      <point x="659" y="1065" type="line" smooth="yes"/>
      <point x="702.28358209" y="1065.0"/>
      <point x="748.0" y="1105.44776119"/>
      <point x="748" y="1145" type="qcurve" smooth="yes"/>
      <point x="748.0" y="1181.56716418"/>
      <point x="701.776119403" y="1221.0"/>
      <point x="657" y="1221" type="qcurve" smooth="yes"/>
      <point x="586" y="1221" type="line"/>
      <point x="586" y="1065" type="line"/>
    </contour>
  </outline>
</glyph>
